<svg width="23" height="24" viewBox="0 0 23 24" fill="none" xmlns="http://www.w3.org/2000/svg">
<path d="M14.6365 6.25C14.9138 6.25 15.1797 6.35097 15.3758 6.53069C15.5718 6.71041 15.682 6.95417 15.682 7.20833C15.682 7.4625 15.5718 7.70625 15.3758 7.88598C15.1797 8.0657 14.9138 8.16667 14.6365 8.16667H6.27279C5.99551 8.16667 5.7296 8.0657 5.53353 7.88598C5.33747 7.70625 5.22732 7.4625 5.22732 7.20833C5.22732 6.95417 5.33747 6.71041 5.53353 6.53069C5.7296 6.35097 5.99551 6.25 6.27279 6.25H14.6365ZM22.6939 23.2192C22.4979 23.3989 22.232 23.4998 21.9548 23.4998C21.6775 23.4998 21.4117 23.3989 21.2156 23.2192L18.6992 20.9125C17.954 21.3485 17.0888 21.5812 16.2047 21.5833C15.2742 21.5833 14.3646 21.3304 13.591 20.8565C12.8173 20.3827 12.2143 19.7092 11.8582 18.9212C11.5021 18.1331 11.409 17.266 11.5905 16.4295C11.772 15.593 12.2201 14.8245 12.8781 14.2214C13.536 13.6183 14.3743 13.2076 15.2869 13.0412C16.1995 12.8748 17.1454 12.9602 18.0051 13.2866C18.8647 13.613 19.5995 14.1657 20.1164 14.8749C20.6334 15.5841 20.9093 16.4179 20.9093 17.2708C20.9069 18.0812 20.6531 18.8743 20.1775 19.5574L22.6939 21.8641C22.8899 22.0438 23 22.2875 23 22.5417C23 22.7958 22.8899 23.0395 22.6939 23.2192ZM16.2047 19.6667C16.7216 19.6667 17.227 19.5262 17.6568 19.2629C18.0866 18.9996 18.4216 18.6255 18.6194 18.1877C18.8172 17.7499 18.869 17.2682 18.7681 16.8034C18.6673 16.3387 18.4184 15.9118 18.0528 15.5767C17.6873 15.2417 17.2216 15.0135 16.7146 14.921C16.2076 14.8286 15.6821 14.876 15.2045 15.0574C14.7269 15.2387 14.3187 15.5458 14.0315 15.9398C13.7443 16.3338 13.591 16.797 13.591 17.2708C13.591 17.9062 13.8664 18.5156 14.3566 18.9649C14.8467 19.4142 15.5115 19.6667 16.2047 19.6667ZM11.5001 21.5833H5.22732C4.3955 21.5833 3.59775 21.2804 3.00956 20.7413C2.42137 20.2021 2.09093 19.4708 2.09093 18.7083V5.29167C2.09093 4.52917 2.42137 3.7979 3.00956 3.25873C3.59775 2.71957 4.3955 2.41667 5.22732 2.41667H17.7729C18.0502 2.41667 18.3161 2.51763 18.5122 2.69736C18.7082 2.87708 18.8184 3.12083 18.8184 3.375V11.0417C18.8184 11.2958 18.9285 11.5396 19.1246 11.7193C19.3206 11.899 19.5866 12 19.8638 12C20.1411 12 20.407 11.899 20.6031 11.7193C20.7991 11.5396 20.9093 11.2958 20.9093 11.0417V3.375C20.9093 2.6125 20.5789 1.88124 19.9907 1.34207C19.4025 0.802901 18.6047 0.5 17.7729 0.5L5.22732 0.5C3.84146 0.501522 2.51284 1.00685 1.53288 1.90513C0.552927 2.80341 0.00166005 4.0213 0 5.29167V18.7083C0.00166005 19.9787 0.552927 21.1966 1.53288 22.0949C2.51284 22.9932 3.84146 23.4985 5.22732 23.5H11.5001C11.7774 23.5 12.0433 23.399 12.2394 23.2193C12.4354 23.0396 12.5456 22.7958 12.5456 22.5417C12.5456 22.2875 12.4354 22.0437 12.2394 21.864C12.0433 21.6843 11.7774 21.5833 11.5001 21.5833Z" fill="black"/>
</svg>
