<svg width="117" height="105" viewBox="0 0 117 105" fill="none" xmlns="http://www.w3.org/2000/svg">
<path fill-rule="evenodd" clip-rule="evenodd" d="M48.0968 14.0541C44.9022 10.4102 36.3215 12.1083 36.6658 15.6389C32.7253 13.4741 25.929 14.9687 26.2722 21.0031C20.5043 21.2309 15.5375 23.6224 14.3965 30.6836C7.42911 30.8542 3.54819 37.3454 6.40289 43.9498C0.579828 46.6836 -1.01802 56.1353 3.54818 60.0082C-0.562279 65.1324 -0.333861 70.4833 6.17336 73.5583C3.54818 77.4312 5.60288 83.3522 11.085 83.1244C11.7691 88.4765 16.5218 98.7624 21.3175 99.6736C47.918 104.726 57.2567 101.683 77.2452 99.1508C79.643 99.2642 86.1006 86.5406 85.0732 81.8709C92.4975 79.1382 93.1816 73.8995 91.5827 69.2309C94.6647 65.9292 96.3784 56.0219 90.8963 53.8571C96.6057 49.0752 93.1805 43.9498 88.2711 42.4696C91.2395 37.801 89.1848 32.3356 83.4754 31.88C85.7563 29.2034 81.0191 21.6876 75.9386 23.9086C77.3092 21.4026 73.1976 16.3356 68.1746 18.9549C69.0298 15.2526 62.0083 12.5772 58.3547 15.9361C58.2399 12.4044 51.2362 9.78283 48.0968 14.0541Z" fill="#E5D79F"/>
<path fill-rule="evenodd" clip-rule="evenodd" d="M47.4647 14.5568C46.1924 13.1327 43.9016 12.6649 41.7994 12.8674C41.048 12.9401 40.3196 13.103 39.6708 13.3407C39.0517 13.5674 38.5188 13.858 38.127 14.1991C37.6724 14.5953 37.4175 15.062 37.4638 15.5616C37.5058 16.0029 37.1803 16.3947 36.7378 16.4377C36.5733 16.4531 36.4122 16.4168 36.2743 16.3419C35.1443 15.7223 33.7451 15.4384 32.3746 15.5154C31.3892 15.5704 30.4214 15.8159 29.5872 16.2583C28.7806 16.6853 28.0975 17.2994 27.6528 18.1061C27.2313 18.8688 27.0106 19.8153 27.0757 20.9566C27.1 21.4001 26.7601 21.7809 26.3165 21.8051L26.2746 21.8062C23.3459 21.9251 20.649 22.6251 18.6374 24.266C16.9237 25.6626 15.6845 27.7647 15.1923 30.8077C15.1294 31.2051 14.784 31.4879 14.3923 31.4857C13.1432 31.5187 12.0033 31.7751 10.9958 32.2077C9.49175 32.8548 8.28784 33.9036 7.47458 35.2089C6.6569 36.5219 6.22323 38.0979 6.26627 39.7916C6.29496 41.021 6.57746 42.3196 7.14355 43.6315C7.3201 44.0398 7.13031 44.5131 6.72092 44.6892L6.69442 44.7002C5.71342 45.1712 4.86265 45.8591 4.15532 46.6878C2.92604 48.1295 2.13484 49.9906 1.838 51.8945C1.54337 53.7875 1.7398 55.7135 2.48575 57.2961C2.86756 58.1028 3.39281 58.8215 4.06924 59.3927C4.41022 59.6799 4.45215 60.1873 4.16525 60.5263L4.14097 60.5527C3.43585 61.4364 2.86867 62.3279 2.44935 63.2128C1.71664 64.7558 1.4496 66.2613 1.71222 67.6414C1.97265 69.0083 2.76164 70.2806 4.13878 71.3811C4.79204 71.9017 5.58324 72.386 6.51789 72.8284C6.91956 73.0177 7.09277 73.4964 6.90408 73.9003L6.84121 74.0071C6.11953 75.0735 5.80172 76.3161 5.85027 77.5124C5.88558 78.3191 6.08862 79.106 6.44946 79.8027C6.80147 80.4839 7.31016 81.0782 7.96011 81.5184C8.76675 82.061 9.80404 82.3714 11.0543 82.3197C11.4802 82.302 11.8433 82.6212 11.8874 83.0405C12.2593 85.9218 13.8527 90.2822 15.999 93.7501C17.6509 96.4212 19.5941 98.5244 21.4678 98.8798C43.6389 103.093 53.7545 101.646 68.1626 99.5831C70.9059 99.1913 73.8069 98.7753 77.146 98.3527C77.1902 98.3461 77.2355 98.345 77.2774 98.3461L77.2818 98.345C78.1811 98.1458 79.8419 95.7091 81.3569 92.6936C82.9261 89.568 84.2492 85.8822 84.3694 83.3586C84.3915 82.8611 84.3672 82.4165 84.2845 82.039C84.1984 81.6362 84.4301 81.2367 84.8108 81.1068C87.9403 79.9524 89.7743 78.351 90.699 76.556C91.8179 74.3813 91.6326 71.8621 90.8193 69.486C90.7167 69.1877 90.8005 68.8719 91.008 68.6628C91.6127 68.009 92.1677 67.0482 92.6124 65.9257C93.3087 64.1702 93.7225 62.0561 93.6475 60.0938C93.5758 58.2151 93.0571 56.4905 91.9007 55.4164C91.5376 55.0807 91.1062 54.8033 90.6008 54.6041C90.1859 54.4413 89.9817 53.9713 90.1461 53.5586C90.2024 53.4166 90.294 53.3011 90.4066 53.2152C91.7672 52.0695 92.5462 50.9238 92.875 49.8354C93.1079 49.0672 93.1145 48.3243 92.9424 47.6332C92.7647 46.9255 92.3995 46.2586 91.8985 45.6621C90.9727 44.5648 89.5889 43.7064 88.0385 43.2397C87.6103 43.1109 87.3676 42.6597 87.4967 42.2338C87.5232 42.1502 87.5618 42.0753 87.6093 42.0071C88.3199 40.879 88.7072 39.708 88.7988 38.592C88.8782 37.5652 88.7094 36.5846 88.3088 35.7328C87.9105 34.8875 87.2793 34.159 86.4351 33.6252C85.6241 33.1123 84.6122 32.7744 83.4138 32.6798C82.9702 32.6446 82.6381 32.2561 82.6712 31.8126C82.6877 31.6156 82.7716 31.4417 82.9007 31.3107C83.2803 30.8276 83.3421 30.0847 83.17 29.2637C82.9901 28.4129 82.5597 27.5049 81.9506 26.696C81.3426 25.8904 80.5624 25.1916 79.6818 24.7579C78.649 24.2495 77.4617 24.1163 76.2633 24.6413C75.855 24.8196 75.3783 24.6325 75.2028 24.2253C75.0947 23.9831 75.1201 23.7179 75.2403 23.5044C75.4368 23.1335 75.4478 22.6493 75.3055 22.1397C75.1289 21.519 74.7338 20.8762 74.1733 20.3326L74.138 20.2974C73.5763 19.768 72.859 19.3454 72.0325 19.1462C71.014 18.9007 69.8212 18.9998 68.55 19.6623C68.156 19.867 67.6694 19.714 67.4652 19.3211C67.3715 19.1462 67.3516 18.9514 67.3935 18.772C67.5094 18.2635 67.4145 17.7782 67.1684 17.3456C66.8219 16.737 66.1797 16.2132 65.3797 15.8324C64.5366 15.4329 63.5413 15.1995 62.5338 15.2006C61.2328 15.2039 59.913 15.5979 58.9034 16.5257C58.5767 16.8262 58.0658 16.8042 57.7657 16.4773C57.62 16.3221 57.5516 16.124 57.5516 15.9281C57.5141 15.1313 56.9733 14.3686 56.1656 13.7787C55.6712 13.4155 55.0809 13.1228 54.4409 12.9247L54.4078 12.9137C53.7733 12.7211 53.1002 12.622 52.4315 12.644C51.0609 12.6869 49.697 13.2405 48.7524 14.5249C48.4898 14.8837 47.9844 14.9607 47.6258 14.6988C47.5607 14.6603 47.5088 14.6107 47.4647 14.5568ZM41.6493 11.2683C43.8949 11.0515 46.3535 11.5071 48.0352 12.8829C49.2523 11.6414 50.8126 11.0911 52.3751 11.0416C53.2281 11.0152 54.0823 11.1385 54.8757 11.3795L54.9154 11.3905C55.7242 11.6425 56.4779 12.0178 57.1146 12.4833C57.897 13.0556 58.5105 13.7677 58.8526 14.5656C59.9781 13.8954 61.2648 13.5993 62.5294 13.5982C63.7873 13.596 65.0254 13.8833 66.0704 14.3807C67.153 14.8969 68.0501 15.6497 68.5665 16.5554C68.7784 16.9285 68.9274 17.3247 69.0013 17.7385C70.2184 17.3478 71.3749 17.339 72.4088 17.5878C73.5233 17.8574 74.4933 18.4264 75.2481 19.1418L75.2944 19.1858C76.0614 19.9243 76.6065 20.8245 76.8569 21.7171C76.9552 22.0671 77.0092 22.4181 77.0115 22.7615C78.2076 22.5744 79.3574 22.8099 80.3958 23.3206C81.5081 23.8676 82.4847 24.7381 83.2373 25.7363C83.9854 26.7324 84.5206 27.8659 84.7457 28.9412C84.9168 29.7545 84.9168 30.5458 84.7071 31.2425C85.6881 31.4461 86.5554 31.7994 87.297 32.2682C88.4071 32.9704 89.2391 33.9311 89.7666 35.0504C90.2907 36.1598 90.5103 37.4177 90.4055 38.7219C90.3183 39.8115 90.0049 40.9362 89.4476 42.0313C90.9087 42.6245 92.2019 43.5259 93.1333 44.6319C93.7887 45.4089 94.2699 46.2916 94.5082 47.2447C94.7499 48.2143 94.7421 49.2466 94.4243 50.3053C94.0845 51.4191 93.3981 52.5571 92.2847 53.6775C92.5407 53.847 92.7768 54.0363 92.9986 54.241C94.5005 55.6354 95.1714 57.7628 95.2586 60.0398C95.3435 62.2322 94.8867 64.5808 94.1176 66.52C93.6729 67.6425 93.1156 68.6429 92.491 69.4111C93.3032 72.0327 93.4092 74.8072 92.1324 77.2879C91.0941 79.3063 89.1574 81.0936 85.9662 82.389C85.9916 82.7169 85.9971 83.0669 85.9794 83.4356C85.8481 86.187 84.4533 90.1172 82.797 93.4123C81.0877 96.8196 79.0109 99.615 77.6228 99.9177C77.508 99.9408 77.3955 99.9529 77.2862 99.954C74.1909 100.347 71.2116 100.773 68.3922 101.177C53.8296 103.26 43.6047 104.725 21.171 100.462C18.7919 100.011 16.4944 97.6142 14.6284 94.5953C12.5296 91.2045 10.9285 86.9717 10.3922 83.9243C9.08788 83.8594 7.97004 83.4687 7.05636 82.8523C6.17578 82.2591 5.48945 81.4568 5.01495 80.54C4.54597 79.6376 4.28332 78.6196 4.24139 77.5762C4.18732 76.3337 4.44887 75.0515 5.04364 73.886C4.33079 73.4986 3.69518 73.0804 3.13461 72.6336C1.43636 71.2766 0.460882 69.6775 0.128735 67.9364C-0.202309 66.2118 0.112189 64.375 0.990558 62.5249C1.37457 61.7182 1.86892 60.9027 2.46811 60.0905C1.87554 59.4708 1.39551 58.7577 1.03026 57.9796C0.143064 56.102 -0.0952697 53.847 0.247912 51.648C0.587784 49.459 1.50256 47.314 2.92495 45.6466C3.62455 44.8267 4.44665 44.118 5.38461 43.5743C4.92115 42.3086 4.685 41.0463 4.65631 39.828C4.60444 37.8128 5.12417 35.9309 6.10516 34.3571C7.09278 32.7755 8.54495 31.5055 10.3569 30.7263C11.3688 30.2905 12.4954 30.0087 13.7181 29.9119C14.346 26.7764 15.7341 24.5488 17.6156 23.0157C19.7486 21.278 22.4885 20.4613 25.4591 20.2412C25.5032 19.123 25.7846 18.1535 26.2392 17.3302C26.8473 16.2275 27.7587 15.3998 28.8313 14.8319C29.8708 14.2806 31.0703 13.9768 32.2874 13.9075C33.5575 13.8359 34.8541 14.023 36.0183 14.4567C36.2169 13.9086 36.58 13.4155 37.0699 12.9874C37.6161 12.5109 38.3224 12.1169 39.1169 11.8263C39.8816 11.5479 40.75 11.3553 41.6493 11.2683Z" fill="#272828"/>
<path fill-rule="evenodd" clip-rule="evenodd" d="M39.7978 20.6827C37.9528 19.8859 36.8471 21.4564 36.1983 23.0523C35.4523 24.8869 35.3464 26.6478 33.4021 27.6493C31.8495 28.4505 30.0618 29.1461 28.9826 30.6065C27.7997 32.2067 27.6684 33.7916 27.707 35.7407C27.7423 37.55 27.6662 39.0787 26.4115 40.538C25.6854 41.3866 24.9031 42.1372 24.2344 43.0374C23.2777 44.324 23.1243 45.8328 23.3847 47.3527C23.5469 48.3102 24.0446 49.2534 24.3756 50.1614C25.18 52.3614 24.1461 53.7239 22.5725 54.9829C19.4486 57.4867 18.9421 60.5562 20.0765 64.3047C20.8003 66.6984 22.1201 68.8808 23.0294 71.1997C23.7665 73.0817 21.5187 76.0323 21.6103 78.1487C21.7129 80.5435 23.4487 82.3253 22.9919 84.8368C22.6078 86.9411 21.1799 88.6261 20.9195 90.8129C20.7473 92.2282 21.4834 93.5885 22.2746 94.6891C23.7213 96.6932 25.5906 98.3254 27.0405 100.361C27.4113 100.881 28.2753 100.4 27.9122 99.8518C26.8717 98.2846 25.9404 96.9485 24.6096 95.607C22.7976 93.7778 21.6346 92.1204 22.2768 89.4394C22.6862 87.7313 23.804 86.2643 24.2222 84.5485C24.5522 83.1915 23.9508 81.6925 23.4707 80.4665C22.631 78.3094 22.7513 76.7961 23.5469 74.6863C24.0942 73.227 23.996 71.5728 23.5822 70.1102C22.1179 64.9607 18.4565 60.335 23.3052 55.7148C25.4791 53.6457 26.0849 52.0895 25.2418 49.129C25.0388 48.4203 24.7718 47.7379 24.5798 47.0237C24.0203 44.9414 25.4714 43.339 26.6664 41.8851C27.7721 40.5402 28.5092 39.2867 28.8326 37.5665C29.3026 35.0638 28.4453 32.9441 30.4459 30.787C31.5372 29.6116 33.2277 28.9491 34.4978 27.9663C36.0085 26.7942 37.2091 20.8368 39.4955 21.397C39.9104 21.4972 40.2171 20.8632 39.7978 20.6827Z" fill="#272828"/>
<path fill-rule="evenodd" clip-rule="evenodd" d="M55.9997 20.2166C57.8006 20.3806 59.0839 20.1472 60.3419 21.9423C61.0503 22.9559 60.887 24.2755 61.0702 25.4222C61.2832 26.7594 61.6065 27.7829 62.7254 28.6139C63.6556 29.305 64.6885 29.8377 65.5966 30.5586C67.3302 31.9398 66.3117 34.3434 65.899 36.0768C65.5492 37.5549 66.325 38.9526 67.2497 40.0355C68.4017 41.3837 69.4423 42.7781 68.6412 44.725C68.3531 45.425 67.9404 46.279 68.0508 47.0593C68.2891 48.7399 69.2315 49.3133 70.4619 50.3742C71.839 51.5573 69.2072 53.9379 69.3452 55.4291C69.4677 56.7608 70.8812 57.6523 71.9074 58.2576C73.1599 58.9982 75.8921 59.9238 74.9167 62.2009C74.5668 63.0164 73.694 63.9112 73.225 64.6595C72.5971 65.6655 72.2981 67.2503 72.9304 68.3211C74.1718 70.4188 77.1953 72.6893 75.144 75.2206C74.1928 76.3949 73.0738 77.2357 72.4482 78.6499C70.7941 82.3875 76.4593 83.6894 74.5558 87.384C73.5902 89.2572 73.8529 90.2939 74.6099 92.2188C75.8369 95.3389 73.4347 99.1171 70.2842 99.6597C69.7689 99.7489 69.8881 100.617 70.4056 100.571C74.1321 100.238 76.211 96.2766 75.8016 92.812C75.5556 90.711 74.3572 90.5415 75.528 87.9508C75.8998 87.1309 76.0168 86.4067 76.0521 85.5307C76.1007 84.2386 75.1406 83.1281 74.3108 82.2587C70.5292 78.2978 77.9975 76.6216 76.7738 72.7498C76.0598 70.4969 73.4336 68.3762 74.0725 65.8955C74.5624 63.9904 76.8499 62.3671 75.3967 60.232C74.3638 58.7143 69.3209 56.1665 71.1847 53.9268C71.8468 53.1267 72.3212 51.7059 71.7265 50.733C71.3138 50.0595 70.8007 49.5752 70.2059 49.0569C68.6301 47.6878 69.5405 45.9015 69.9764 44.3519C70.5667 42.2554 69.3529 40.7289 68.0155 39.2739C65.6938 36.7404 68.5308 34.1596 67.3159 31.4787C66.4397 29.5516 64.4843 28.7724 62.9461 27.4517C61.3251 26.0606 62.3667 23.1309 61.0095 21.4327C59.6058 19.6795 58.1724 19.5859 56.0019 19.8314C55.7525 19.8578 55.747 20.1935 55.9997 20.2166Z" fill="#272828"/>
<path fill-rule="evenodd" clip-rule="evenodd" d="M48.6599 20.1764C48.4304 20.1005 48.2009 20.0223 47.9714 19.9464C47.7628 19.876 47.5796 20.0267 47.5079 20.2072C46.688 22.2961 47.2696 24.2089 47.3214 26.3825C47.3744 28.7806 44.7691 30.0452 45.2888 32.5787C45.7545 34.8414 47.7783 38.5437 46.7774 40.7504C45.9697 42.5267 45.0085 43.7373 45.035 45.7678C45.0637 48.0988 47.3501 49.4987 47.0114 51.9728C46.7642 53.7865 44.5451 54.5327 44.4634 56.3641C44.3884 58.0842 45.0615 59.2431 46.3382 60.3151C49.1664 62.6868 45.9962 64.9573 45.0185 67.1364C44.5694 68.1335 44.7845 69.0745 45.2391 70.01C45.5581 70.6703 46.176 71.2811 46.645 71.8193C48.7593 74.2273 46.5004 74.6796 45.5867 75.866C44.7834 76.9094 44.6058 78.229 45.216 79.4385C45.5636 80.1263 45.952 80.7559 46.4265 81.3656C48.0597 83.4655 46.9794 84.8775 45.4411 86.3335C44.3718 87.345 44.118 88.7107 44.4723 90.0842C45.0295 92.259 47.7926 92.774 46.3371 95.3571C45.5327 96.7834 44.8419 97.6429 45.1465 99.3246C45.4234 100.847 46.7134 101.94 48.0486 102.487C48.4955 102.669 48.714 101.99 48.3598 101.749C45.1023 99.5315 46.773 97.0915 47.9383 94.3632C48.2682 93.5928 47.3556 92.6078 47.0467 91.9904C46.2334 90.3583 44.6841 89.4228 46.4122 87.3031C46.8624 86.7518 47.4285 86.2917 47.85 85.7139C48.6224 84.6519 48.8034 83.7835 48.4382 82.5267C47.8048 80.3442 44.6896 78.5613 46.7796 76.0939C47.3656 75.4005 48.4359 74.6918 48.4238 73.6484C48.415 72.4125 47.7474 71.4 47.0025 70.4469C44.5826 67.3499 47.2011 66.4926 48.1943 63.8743C48.6423 62.6879 48.5783 61.7667 47.9162 60.6915C47.5741 60.1412 46.9606 59.6867 46.5181 59.2189C45.2138 57.8322 45.6982 56.1021 46.4982 54.689C47.2729 53.321 48.149 52.3756 48.1325 50.7281C48.1104 48.3233 45.7997 47.061 46.2169 44.3536C46.4707 42.6984 48.0221 41.4107 47.9846 39.652C47.9471 37.8702 47.498 36.3668 47.0312 34.6543C46.5512 32.8934 45.9774 31.378 47.0776 29.638C47.5719 28.8533 47.9394 28.2898 48.2208 27.4137C48.6147 26.1822 46.9981 20.621 48.5816 20.7333C48.9193 20.7575 48.9502 20.2733 48.6599 20.1764Z" fill="#272828"/>
<path fill-rule="evenodd" clip-rule="evenodd" d="M25.5871 27.5016C24.285 28.3986 23.8558 29.3219 23.3526 30.8033C22.5437 33.1893 20.7031 34.2238 19.0799 35.9715C18.0194 37.1139 18.2291 38.8451 18.2313 40.2538C18.2357 43.1384 15.8577 44.2709 14.3846 46.3433C13.4643 47.6353 13.2215 49.4854 13.5073 51.003C13.7115 52.0871 14.1065 52.7617 13.0008 53.268C12.5219 53.4903 12.1246 53.9724 11.8355 54.3818C9.58003 57.5481 9.00293 61.5046 11.0488 64.9296C11.1448 65.0892 11.4295 65.0319 11.4162 64.8294C11.1161 60.7739 10.2973 56.4883 13.9851 53.5619C14.4022 53.2306 14.6318 52.0321 14.5965 51.6029C14.3691 48.923 15.0577 46.1738 17.0605 44.2423C17.7668 43.561 18.644 43.0526 18.9662 42.0599C19.6989 39.7729 18.6186 37.2779 20.5795 35.3904C21.4226 34.5815 22.5239 34.3339 23.1672 33.2895C24.2751 31.4867 24.0698 29.1613 25.6732 27.6128C25.7295 27.5566 25.6544 27.4565 25.5871 27.5016Z" fill="#272828"/>
<path fill-rule="evenodd" clip-rule="evenodd" d="M11.2775 65.3988C11.3802 67.2566 10.4952 69.0813 9.99419 70.8301C9.56053 72.3379 9.75915 73.7301 10.1034 75.2291C10.4963 76.9294 10.1995 78.4967 10.1145 80.2058C10.0372 81.7499 10.8262 83.4899 11.1396 84.9878C11.2312 85.4236 11.8547 85.2915 11.8822 84.8854C11.9849 83.2456 11.2786 81.8281 11.0977 80.2058C10.931 78.6981 11.4982 77.2365 11.1893 75.7001C10.7391 73.4726 10.6497 71.7491 11.2853 69.5435C11.7256 68.0182 11.6616 66.9242 11.442 65.3757C11.4265 65.2822 11.2698 65.3064 11.2775 65.3988Z" fill="#272828"/>
<path fill-rule="evenodd" clip-rule="evenodd" d="M69.0724 24.7686C70.4352 26.2038 71.1712 27.4232 71.0179 29.4912C70.9483 30.4002 71.5166 31.1024 72.0253 31.7671C73.5183 33.7217 76.2406 35.1855 76.948 37.6474C77.5493 39.7363 76.1546 41.8769 77.0153 44.0318C77.2801 44.6943 77.7998 45.2589 78.2379 45.8147C79.9991 48.0411 79.0788 50.228 79.3701 52.7406C79.7376 55.9333 83.3702 56.6839 82.3418 60.5711C81.7238 62.8999 80.8532 64.6949 81.8783 67.0314C82.3352 68.0703 83.2312 68.9442 83.8017 69.9314C84.6955 71.4788 83.6328 73.8296 83.2908 75.4144C82.6872 78.2263 83.5269 82.0706 84.4483 84.7032C84.5818 85.0895 85.2075 85.0476 85.1898 84.6019C85.0331 80.6498 84.0047 77.3151 84.9747 73.3728C85.5308 71.1079 84.6712 69.5627 83.5103 67.7005C81.5152 64.5012 84.0224 61.6375 83.5755 58.2885C83.4662 57.4785 82.8262 56.7345 82.3782 56.0962C80.9172 54.0227 80.4394 52.3312 80.6534 49.7525C80.894 46.8646 78.761 45.599 77.9389 43.1095C77.268 41.0735 78.7698 38.8173 77.7292 36.7824C76.5838 34.5449 74.464 33.0042 72.8066 31.1651C71.6513 29.883 72.267 28.2783 71.4504 26.951C70.8623 25.9935 70.0203 25.3959 69.1761 24.6652C69.1066 24.6035 69.0062 24.7004 69.0724 24.7686Z" fill="#272828"/>
<path fill-rule="evenodd" clip-rule="evenodd" d="M39.8039 36.3207C39.2488 35.7132 38.9994 34.9593 38.8571 34.1625C38.739 33.5176 38.8151 32.8848 38.5061 32.2883C38.4344 32.1485 38.2027 32.1463 38.131 32.2883C37.4358 33.6662 38.2833 35.8068 39.3989 36.7268C39.6825 36.9602 40.0577 36.5992 39.8039 36.3207Z" fill="#272828"/>
<path fill-rule="evenodd" clip-rule="evenodd" d="M36.4696 44.4591C36.0149 43.8626 35.6916 43.2077 35.4411 42.5001C35.2359 41.9124 35.2138 41.23 34.7834 40.7568C34.6477 40.6104 34.4226 40.6984 34.3652 40.8668C34.1357 41.5327 34.5054 42.3141 34.7459 42.9392C35.0229 43.6568 35.4257 44.2951 35.9333 44.8718C36.1871 45.1601 36.7057 44.7683 36.4696 44.4591Z" fill="#272828"/>
<path fill-rule="evenodd" clip-rule="evenodd" d="M35.013 54.2911C34.5583 53.6407 34.2516 52.9605 34.0508 52.1912C33.8587 51.4605 33.8609 50.7528 33.4957 50.0804C33.4107 49.9241 33.1834 49.9692 33.1348 50.1266C32.6626 51.6399 33.6149 53.491 34.5363 54.6609C34.7482 54.9317 35.2094 54.574 35.013 54.2911Z" fill="#272828"/>
<path fill-rule="evenodd" clip-rule="evenodd" d="M33.1556 64.068C32.4483 63.6453 32.125 62.8375 31.8557 62.1078C31.6174 61.4662 31.4883 60.5726 30.9145 60.1235C30.7578 60.0025 30.5602 60.0784 30.5382 60.2787C30.4532 61.0876 30.8868 62.0803 31.2069 62.8067C31.5611 63.6156 32.0742 64.3387 32.9824 64.4785C33.2218 64.5137 33.3873 64.2066 33.1556 64.068Z" fill="#272828"/>
<path fill-rule="evenodd" clip-rule="evenodd" d="M33.4406 74.6351C32.9572 73.9319 32.5964 73.1758 32.2863 72.3823C32.0568 71.7957 31.9034 71.1265 31.4885 70.6401C31.3506 70.4761 31.1045 70.6203 31.0968 70.8019C31.0593 71.4468 31.3782 72.0796 31.6242 72.6596C31.9707 73.4663 32.39 74.2368 32.9219 74.9356C33.1503 75.2394 33.6635 74.9598 33.4406 74.6351Z" fill="#272828"/>
<path fill-rule="evenodd" clip-rule="evenodd" d="M34.4215 83.0379C34.1942 82.6439 33.9669 82.2532 33.7495 81.8559C33.5376 81.4751 33.3931 81.0315 33.0399 80.7597C32.9086 80.6573 32.6879 80.708 32.6935 80.9028C32.7023 81.3177 32.923 81.6324 33.1271 81.9868C33.3853 82.4381 33.6612 82.8783 33.936 83.3207C34.1269 83.6267 34.6047 83.3515 34.4215 83.0379Z" fill="#272828"/>
<path fill-rule="evenodd" clip-rule="evenodd" d="M34.1971 91.4424C33.5781 91.1342 33.1146 90.6973 32.7295 90.1272C32.4062 89.6485 32.1392 89.1686 31.7309 88.7537C31.6062 88.6283 31.434 88.7625 31.4572 88.9144C31.668 90.2516 32.6534 91.4358 33.8816 91.9861C34.2446 92.1467 34.5657 91.6262 34.1971 91.4424Z" fill="#272828"/>
<path fill-rule="evenodd" clip-rule="evenodd" d="M16.6595 82.3305C16.1419 82.0135 15.748 81.5975 15.3982 81.1066C15.1058 80.6994 14.8906 80.2317 14.5022 79.9026C14.34 79.7639 14.1182 79.8971 14.1568 80.104C14.3488 81.2134 15.396 82.3293 16.3329 82.8884C16.6915 83.1052 17.0148 82.5495 16.6595 82.3305Z" fill="#272828"/>
<path fill-rule="evenodd" clip-rule="evenodd" d="M17.2666 72.0266C16.5251 71.2419 15.8145 70.4374 15.1524 69.5834C14.5521 68.8075 14.1361 67.9193 13.5633 67.1291C13.4011 66.9057 13.0889 67.0444 13.1308 67.3118C13.4431 69.3313 15.4636 71.0911 16.8661 72.4283C17.1309 72.6792 17.5193 72.2918 17.2666 72.0266Z" fill="#272828"/>
<path fill-rule="evenodd" clip-rule="evenodd" d="M16.3445 60.5443C15.9461 59.9357 15.5996 59.2963 15.2995 58.6337C14.9993 57.9646 14.8272 57.2173 14.4057 56.6109C14.2832 56.4326 13.9907 56.4887 13.9885 56.7231C13.9709 58.1792 14.9585 59.8311 15.8391 60.9328C16.0686 61.2178 16.5409 60.8437 16.3445 60.5443Z" fill="#272828"/>
<path fill-rule="evenodd" clip-rule="evenodd" d="M19.3171 52.3112C18.1927 50.7968 18.0824 49.0579 17.3585 47.3939C17.2879 47.2266 17.0583 47.329 17.0462 47.4775C16.9171 49.2891 17.7657 51.2492 18.8647 52.6579C19.0644 52.9143 19.5069 52.572 19.3171 52.3112Z" fill="#272828"/>
<path fill-rule="evenodd" clip-rule="evenodd" d="M21.6411 42.2736C21.2527 41.1642 21.395 40.0042 21.0673 38.9003C21.0231 38.7507 20.8091 38.7507 20.7649 38.9003C20.435 40.0196 20.6689 41.3568 21.0474 42.4365C21.1765 42.8084 21.7724 42.6478 21.6411 42.2736Z" fill="#272828"/>
<path fill-rule="evenodd" clip-rule="evenodd" d="M25.4564 34.3183C25.3471 33.9782 25.2357 33.6337 25.1441 33.2859C25.0503 32.9239 25.0525 32.5167 24.7965 32.2305C24.7159 32.1425 24.5383 32.1337 24.4588 32.2305C23.9932 32.8149 24.4059 34.2864 25.0635 34.6198C25.26 34.72 25.5314 34.556 25.4564 34.3183Z" fill="#272828"/>
<path fill-rule="evenodd" clip-rule="evenodd" d="M31.1347 25.149C30.765 24.2752 30.5443 23.3804 30.4307 22.4395C30.3479 21.7582 30.4064 21.0648 30.2287 20.399C30.1802 20.2163 29.901 20.213 29.8546 20.399C29.4563 21.9739 30.0279 23.9802 30.6613 25.4242C30.8058 25.7477 31.2704 25.4682 31.1347 25.149Z" fill="#272828"/>
<path fill-rule="evenodd" clip-rule="evenodd" d="M35.1314 19.4586C34.9913 19.1549 34.9626 18.8688 34.7253 18.6277C34.6249 18.5265 34.4451 18.6013 34.4473 18.7433C34.4495 19.0603 34.5223 19.3706 34.6327 19.6689C34.7662 20.0409 35.3003 19.8196 35.1314 19.4586Z" fill="#272828"/>
<path fill-rule="evenodd" clip-rule="evenodd" d="M21.1798 30.3966C20.7428 29.6471 20.6093 28.8503 20.5585 27.9929C20.5221 27.3601 20.628 26.6899 20.4129 26.0835C20.3411 25.8755 20.0675 25.8788 19.9935 26.0835C19.4992 27.4581 19.8788 29.4974 20.6534 30.7036C20.8664 31.0316 21.3795 30.7378 21.1798 30.3966Z" fill="#272828"/>
<path fill-rule="evenodd" clip-rule="evenodd" d="M15.1629 37.2395C14.8241 36.6507 14.6078 36.0366 14.4456 35.3806C14.2966 34.7764 14.258 34.1315 13.9513 33.5823C13.8531 33.4062 13.6125 33.4998 13.597 33.6792C13.49 34.9239 14.0583 36.4603 14.6917 37.5157C14.8704 37.8173 15.3405 37.5444 15.1629 37.2395Z" fill="#272828"/>
<path fill-rule="evenodd" clip-rule="evenodd" d="M11.995 43.9993C11.3307 43.2883 11.0934 42.3616 10.8992 41.4339C10.8385 41.1521 10.3651 41.2126 10.3938 41.501C10.4965 42.5883 10.8164 43.6053 11.5856 44.4098C11.846 44.6816 12.251 44.2733 11.995 43.9993Z" fill="#272828"/>
<path fill-rule="evenodd" clip-rule="evenodd" d="M8.83489 52.1341C8.30302 51.4771 7.86825 50.7672 7.54714 49.9847C7.3132 49.4124 7.20725 48.8082 6.94462 48.2469C6.88503 48.1182 6.66654 48.149 6.64006 48.2854C6.34433 49.7976 7.52505 51.4243 8.47625 52.4918C8.69695 52.7405 9.03683 52.384 8.83489 52.1341Z" fill="#272828"/>
<path fill-rule="evenodd" clip-rule="evenodd" d="M8.09699 61.4288C7.49449 61.0987 6.97806 60.6672 6.56094 60.1203C6.23762 59.6965 6.06219 59.121 5.63073 58.7985C5.51707 58.7115 5.31292 58.7985 5.28754 58.9372C5.1805 59.5414 5.63071 60.1115 5.98492 60.5638C6.45832 61.1658 7.09724 61.6379 7.77919 61.9736C8.14113 62.1475 8.45562 61.6258 8.09699 61.4288Z" fill="#272828"/>
<path fill-rule="evenodd" clip-rule="evenodd" d="M7.12955 69.0506C6.62195 68.5796 6.20703 68.0414 5.82523 67.4658C5.4666 66.921 5.15101 66.2651 4.64231 65.8403C4.50879 65.728 4.29692 65.8326 4.34216 66.0164C4.49665 66.6514 4.92369 67.2446 5.29336 67.7762C5.71489 68.3826 6.18937 68.9472 6.75104 69.4292C7.00815 69.6504 7.38556 69.2883 7.12955 69.0506Z" fill="#272828"/>
<path fill-rule="evenodd" clip-rule="evenodd" d="M44.5567 20.5898C44.0767 19.8909 43.7489 19.1283 43.4488 18.3391C43.2314 17.7614 43.0857 17.0097 42.6245 16.5815C42.4711 16.4418 42.2151 16.5364 42.2129 16.751C42.2107 17.418 42.6466 18.151 42.9059 18.7607C43.2193 19.508 43.5746 20.2266 44.0601 20.8793C44.2764 21.1698 44.7685 20.8991 44.5567 20.5898Z" fill="#272828"/>
<path fill-rule="evenodd" clip-rule="evenodd" d="M43.0288 27.4148C42.5433 26.8964 42.124 26.345 41.783 25.7221C41.4663 25.1454 41.3847 24.4664 41.047 23.9095C40.9422 23.7356 40.7126 23.8269 40.6939 24.0063C40.5416 25.3479 41.8437 26.8436 42.7309 27.7097C42.9262 27.9012 43.2131 27.6118 43.0288 27.4148Z" fill="#272828"/>
<path fill-rule="evenodd" clip-rule="evenodd" d="M51.94 20.2254C52.1144 18.9719 52.836 17.3893 52.4531 16.1412C52.4035 15.9806 52.1905 15.9905 52.1364 16.1412C51.9213 16.7499 51.9025 17.4146 51.7999 18.0496C51.6862 18.7551 51.5659 19.4539 51.5008 20.1671C51.4788 20.4158 51.9069 20.4742 51.94 20.2254Z" fill="#272828"/>
<path fill-rule="evenodd" clip-rule="evenodd" d="M53.8942 27.5194C54.3885 26.8062 54.767 26.0446 55.1025 25.2456C55.4203 24.4873 55.8197 23.5595 55.7248 22.7264C55.7083 22.5811 55.5395 22.5261 55.4501 22.6527C55.0197 23.2701 54.9259 24.0999 54.7196 24.8175C54.4614 25.7144 54.0641 26.5421 53.5532 27.3213C53.412 27.5348 53.7518 27.7263 53.8942 27.5194Z" fill="#272828"/>
<path fill-rule="evenodd" clip-rule="evenodd" d="M55.4107 34.8261C55.7318 34.3331 56.0099 33.8202 56.2912 33.3029C56.5208 32.877 56.8573 32.461 56.9125 31.9734C56.9301 31.8227 56.7359 31.739 56.6201 31.8073C56.1919 32.0571 55.9944 32.5788 55.7671 32.9992C55.4857 33.5153 55.2098 34.0315 54.8887 34.5246C54.6791 34.8492 55.1988 35.1497 55.4107 34.8261Z" fill="#272828"/>
<path fill-rule="evenodd" clip-rule="evenodd" d="M55.9698 42.6883C57.3248 41.8662 59.3265 40.7084 59.843 39.1203C59.8761 39.0124 59.7382 38.8947 59.6399 38.9662C59.0032 39.4295 58.5133 40.0437 57.9306 40.5752C57.231 41.2169 56.4421 41.7506 55.7016 42.3416C55.5041 42.5001 55.7612 42.8149 55.9698 42.6883Z" fill="#272828"/>
<path fill-rule="evenodd" clip-rule="evenodd" d="M57.2826 49.9882C57.9535 49.6162 58.5196 49.1275 59.0581 48.5894C59.5359 48.115 60.2322 47.5911 60.4893 46.9638C60.5522 46.8086 60.3691 46.6623 60.2267 46.7019C59.611 46.8736 59.1585 47.5405 58.7469 47.995C58.2228 48.5728 57.6766 49.1077 57.0068 49.516C56.7055 49.6998 56.9736 50.1599 57.2826 49.9882Z" fill="#272828"/>
<path fill-rule="evenodd" clip-rule="evenodd" d="M58.5464 57.2114C59.0727 56.8405 59.5979 56.4707 60.1177 56.0921C60.5723 55.7609 61.1108 55.4362 61.4165 54.9541C61.4882 54.8419 61.3701 54.6658 61.2366 54.7186C60.7213 54.9211 60.302 55.3317 59.8661 55.6607C59.3508 56.0503 58.8299 56.4256 58.3058 56.8031C58.063 56.9792 58.2948 57.3886 58.5464 57.2114Z" fill="#272828"/>
<path fill-rule="evenodd" clip-rule="evenodd" d="M59.269 65.3297C59.887 64.9456 60.442 64.4921 60.9739 63.9991C61.4616 63.55 62.0564 63.0878 62.3014 62.4572C62.3466 62.3416 62.2076 62.2018 62.0928 62.247C61.5113 62.477 61.1372 63.0009 60.7135 63.4411C60.1915 63.9793 59.6387 64.48 59.0152 64.8971C58.7493 65.0754 58.992 65.5013 59.269 65.3297Z" fill="#272828"/>
<path fill-rule="evenodd" clip-rule="evenodd" d="M60.1329 73.7855C60.7122 73.2198 61.2563 72.6255 61.7683 71.9982C62.2229 71.4457 62.8089 70.8327 63.0119 70.1394C63.0638 69.9611 62.8508 69.8719 62.7261 69.9732C62.2273 70.3705 61.9084 71.0099 61.5366 71.5239C61.0234 72.226 60.4574 72.8842 59.8593 73.5137C59.6849 73.692 59.9531 73.9583 60.1329 73.7855Z" fill="#272828"/>
<path fill-rule="evenodd" clip-rule="evenodd" d="M60.7711 82.4447C61.6329 81.178 62.743 79.9354 63.3885 78.5509C63.4514 78.4134 63.3003 78.2978 63.1833 78.3936C61.9915 79.3786 61.2026 80.9249 60.3595 82.207C60.1929 82.4613 60.6011 82.6957 60.7711 82.4447Z" fill="#272828"/>
<path fill-rule="evenodd" clip-rule="evenodd" d="M60.1244 91.3628C61.3537 90.5385 62.509 89.1474 63.1215 87.8058C63.1778 87.6814 63.052 87.5108 62.914 87.6C61.6461 88.4342 61.1109 90.0179 59.8673 90.9248C59.6069 91.1152 59.8486 91.5477 60.1244 91.3628Z" fill="#272828"/>
<path fill-rule="evenodd" clip-rule="evenodd" d="M61.0414 98.1639C61.4872 97.8173 61.8569 97.3737 62.2498 96.9687C62.6282 96.5791 63.0266 96.2149 63.4062 95.8275C63.5309 95.6965 63.4062 95.4687 63.2252 95.5215C62.0997 95.8483 61.2963 96.939 60.6166 97.836C60.4158 98.1034 60.823 98.3345 61.0414 98.1639Z" fill="#272828"/>
<path fill-rule="evenodd" clip-rule="evenodd" d="M35.4649 97.8651C34.1209 97.821 33.0759 97.1101 31.9636 96.442C31.8345 96.3628 31.7186 96.5356 31.8102 96.6412C32.7503 97.7187 34.0249 98.3339 35.4638 98.3647C35.7882 98.3724 35.7882 97.875 35.4649 97.8651Z" fill="#272828"/>
<path fill-rule="evenodd" clip-rule="evenodd" d="M16.9896 88.3363C16.1344 88.1327 15.4723 87.6847 14.819 87.1113C14.3147 86.6656 13.891 86.0713 13.294 85.7411C13.1803 85.6762 12.9972 85.783 13.0535 85.9249C13.6218 87.3546 15.3796 88.5531 16.8527 88.8326C17.1738 88.8921 17.3151 88.4144 16.9896 88.3363Z" fill="#272828"/>
<path fill-rule="evenodd" clip-rule="evenodd" d="M64.5349 24.6931C65.0458 24.1758 65.4839 23.6124 65.8966 23.0158C66.2872 22.4524 66.7496 21.8492 66.9615 21.1933C67.0001 21.0733 66.8423 20.9908 66.754 21.0734C66.306 21.5059 66.0323 22.109 65.7024 22.6306C65.2897 23.2822 64.8306 23.8985 64.2988 24.4576C64.152 24.6128 64.3837 24.8461 64.5349 24.6931Z" fill="#272828"/>
<path fill-rule="evenodd" clip-rule="evenodd" d="M68.7214 32.354C69.016 31.9732 69.2533 31.5671 69.4949 31.1511C69.7311 30.7439 70.0279 30.3158 70.0378 29.8381C70.0422 29.6477 69.8249 29.596 69.6969 29.6973C69.3404 29.9779 69.1837 30.4567 68.9961 30.8606C68.7931 31.2953 68.5779 31.719 68.3859 32.1581C68.2866 32.3893 68.5691 32.5521 68.7214 32.354Z" fill="#272828"/>
<path fill-rule="evenodd" clip-rule="evenodd" d="M71.062 39.5118C71.8919 38.9615 72.8938 37.9952 73.1377 36.9948C73.173 36.8429 72.9732 36.6999 72.8563 36.833C72.5848 37.1478 72.3995 37.5242 72.1699 37.8698C71.8268 38.3892 71.3975 38.8559 70.8932 39.2246C70.7233 39.35 70.88 39.634 71.062 39.5118Z" fill="#272828"/>
<path fill-rule="evenodd" clip-rule="evenodd" d="M72.3642 45.8031C73.0682 45.4113 73.6729 44.8951 74.2379 44.3261C74.7863 43.7736 75.4274 43.1463 75.6834 42.3946C75.7243 42.2769 75.572 42.1558 75.4683 42.2295C74.8823 42.6357 74.4961 43.2806 74.0349 43.8133C73.4886 44.4439 72.874 45.0173 72.1589 45.452C71.9338 45.5885 72.1347 45.9308 72.3642 45.8031Z" fill="#272828"/>
<path fill-rule="evenodd" clip-rule="evenodd" d="M73.9711 53.0695C74.8649 53.163 75.7653 52.1913 76.306 51.6025C76.9637 50.8838 77.884 49.8988 78.1444 48.949C78.1852 48.8026 78.0087 48.6386 77.8708 48.7388C77.1667 49.245 76.7386 50.1794 76.2034 50.8519C75.8779 51.2624 75.5192 51.641 75.1264 51.9854C74.7369 52.3266 74.2999 52.4565 73.8762 52.7217C73.7073 52.8263 73.7934 53.0497 73.9711 53.0695Z" fill="#272828"/>
<path fill-rule="evenodd" clip-rule="evenodd" d="M77.3401 62.0726C77.9415 61.3451 78.7547 60.687 79.1994 59.8472C79.3506 59.5611 79.0052 59.3212 78.768 59.516C78.0596 60.0993 77.4515 60.8983 76.8766 61.6104C76.6162 61.9361 77.0708 62.3995 77.3401 62.0726Z" fill="#272828"/>
<path fill-rule="evenodd" clip-rule="evenodd" d="M78.1201 70.2147C79.1717 69.6006 80.1527 68.8632 81.094 68.0939C81.2397 67.9762 81.083 67.7065 80.9075 67.7759C79.7643 68.226 78.8617 69.0679 77.8089 69.6853C77.4669 69.8867 77.7758 70.4161 78.1201 70.2147Z" fill="#272828"/>
<path fill-rule="evenodd" clip-rule="evenodd" d="M77.8365 79.887C78.9322 79.2047 80.2277 78.4475 81.0917 77.4768C81.2076 77.3436 81.0984 77.1147 80.9119 77.1708C79.6517 77.5417 78.6144 78.6533 77.5264 79.3576C77.1942 79.5722 77.4977 80.0983 77.8365 79.887Z" fill="#272828"/>
<path fill-rule="evenodd" clip-rule="evenodd" d="M78.3248 90.1354C79.105 89.9439 79.9425 89.5631 80.5218 89.0018C80.6532 88.873 80.5197 88.6331 80.3387 88.6903C79.5828 88.928 78.9593 89.4178 78.1748 89.595C77.8239 89.6753 77.9728 90.2212 78.3248 90.1354Z" fill="#272828"/>
<path fill-rule="evenodd" clip-rule="evenodd" d="M86.7319 74.1439C87.138 73.8083 87.5452 73.4737 87.9601 73.1435C88.4456 72.7561 88.9764 72.4248 89.3858 71.9549C89.5149 71.8085 89.3946 71.4949 89.1728 71.5884C88.1046 72.0341 87.1887 72.9872 86.3104 73.7235C86.0168 73.9722 86.4384 74.3839 86.7319 74.1439Z" fill="#272828"/>
<path fill-rule="evenodd" clip-rule="evenodd" d="M87.231 64.069C88.1381 63.5297 89.1411 62.7164 89.651 61.7787C89.7238 61.6445 89.5781 61.4937 89.4402 61.5707C89.0209 61.8029 88.6887 62.1716 88.35 62.5051C87.9273 62.9233 87.4705 63.2942 86.9552 63.5991C86.6528 63.7774 86.9287 64.2528 87.231 64.069Z" fill="#272828"/>
<path fill-rule="evenodd" clip-rule="evenodd" d="M85.5843 53.2849C86.1835 52.1337 87.0331 51.1542 87.8144 50.1252C87.9347 49.9645 87.6743 49.7763 87.5408 49.9139C86.6227 50.8603 85.7862 51.8729 85.1804 53.0472C85.0436 53.3146 85.4441 53.5523 85.5843 53.2849Z" fill="#272828"/>
<path fill-rule="evenodd" clip-rule="evenodd" d="M82.4969 43.399C83.8222 42.6507 85.0018 41.4455 85.7997 40.1557C85.8957 39.9994 85.6849 39.8651 85.5558 39.9719C84.3905 40.936 83.6015 42.228 82.2729 43.0194C82.0313 43.1646 82.2497 43.5388 82.4969 43.399Z" fill="#272828"/>
<path fill-rule="evenodd" clip-rule="evenodd" d="M78.2075 33.2796C78.6953 31.872 79.7204 30.8001 80.3538 29.4739C80.4222 29.3308 80.2313 29.2174 80.1397 29.3495C79.3176 30.5623 78.4437 31.8137 78.0067 33.2246C77.9692 33.3534 78.1656 33.404 78.2075 33.2796Z" fill="#272828"/>
<path fill-rule="evenodd" clip-rule="evenodd" d="M73.6388 26.8474C74.0537 26.1397 74.3925 25.4244 74.5436 24.6155C74.5734 24.4526 74.3671 24.359 74.2733 24.5021C73.8429 25.1613 73.5626 25.8932 73.1665 26.5723C72.9877 26.8771 73.4633 27.1523 73.6388 26.8474Z" fill="#272828"/>
<path fill-rule="evenodd" clip-rule="evenodd" d="M71.5001 22.3643C71.6491 21.8074 71.9834 21.332 72.128 20.7762C72.1655 20.6342 71.9691 20.4978 71.8654 20.6243C71.4791 21.0932 71.2033 21.6545 71.0289 22.2356C70.9384 22.536 71.4162 22.6681 71.5001 22.3643Z" fill="#272828"/>
<path fill-rule="evenodd" clip-rule="evenodd" d="M31.9308 11.8205C33.053 6.78761 41.8378 7.52168 44.3008 12.6503C44.825 13.7421 45.0787 14.8085 45.3667 15.974C39.9023 13.4471 35.3196 16.9491 32.7717 14.5917C31.9264 13.8081 31.8955 12.8759 31.9308 11.8205Z" fill="#E5D79F"/>
<path fill-rule="evenodd" clip-rule="evenodd" d="M31.1492 11.6148C31.5177 10.0091 32.5385 8.89975 33.8858 8.25592C34.6351 7.89934 35.4781 7.68804 36.3609 7.6209C37.2239 7.55487 38.132 7.6242 39.0313 7.8245C41.4899 8.36928 43.8712 9.90018 45.0266 12.3038C45.5695 13.4341 45.8321 14.4983 46.1179 15.6517L46.1488 15.7794C46.2558 16.2108 45.9899 16.6466 45.5584 16.7523C45.373 16.7974 45.1876 16.7765 45.0287 16.7028C42.3804 15.4789 39.8876 15.7904 37.7822 16.0534C35.562 16.3297 33.7126 16.5619 32.2196 15.1796C31.6645 14.6656 31.3765 14.101 31.232 13.4902C31.1051 12.9432 31.105 12.3831 31.1249 11.7943C31.1282 11.7315 31.1359 11.6732 31.1492 11.6148ZM34.5821 9.70537C33.6751 10.1379 32.992 10.8731 32.7327 11.9241C32.7205 12.3621 32.7227 12.7715 32.8055 13.1259C32.8805 13.4418 33.0306 13.7356 33.3175 14.002C34.2566 14.8703 35.7695 14.681 37.5858 14.4543C39.5102 14.2144 41.7327 13.937 44.1945 14.67C44.0279 14.0977 43.8359 13.5441 43.5733 12.9972C42.6507 11.0745 40.7053 9.84185 38.6837 9.39392C37.9466 9.22994 37.1974 9.17271 36.4823 9.22773C35.7893 9.28056 35.1383 9.43793 34.5821 9.70537Z" fill="#272828"/>
<path fill-rule="evenodd" clip-rule="evenodd" d="M67.2023 16.9179C67.6184 9.97552 52.2624 10.5412 47.8882 13.5259C46.7262 14.3183 46.3212 14.9699 45.668 16.1717C52.3308 14.8543 62.6571 20.6532 65.5979 19.3292C66.6606 18.8516 66.9276 17.9414 67.2023 16.9179Z" fill="#E5D79F"/>
<path fill-rule="evenodd" clip-rule="evenodd" d="M66.4018 16.7937C66.4305 16.0629 66.2418 15.4422 65.8843 14.9216C65.3369 14.1226 64.3835 13.5184 63.1907 13.0859C61.9239 12.6247 60.4011 12.3628 58.8076 12.2682C54.7557 12.026 50.3197 12.8438 48.3455 14.1909C47.8435 14.5331 47.5069 14.8402 47.231 15.1847C50.76 15.0339 54.8539 16.2599 58.3949 17.3209C61.542 18.2629 64.2224 19.0663 65.2685 18.5964C65.6172 18.4379 65.839 18.2079 65.9946 17.935C66.1701 17.6202 66.2881 17.2207 66.4018 16.7937ZM67.2173 14.0159C67.7834 14.8402 68.0747 15.8175 68.0084 16.9577C68.0062 17.0127 67.9974 17.0688 67.9842 17.1239C67.833 17.6895 67.6818 18.2266 67.4037 18.723C67.0892 19.2777 66.6424 19.7432 65.9328 20.0635C64.3372 20.7821 61.3909 19.8995 57.9348 18.8649C53.9865 17.6807 49.3166 16.2819 45.8451 16.9599C45.663 17.0006 45.4644 16.9775 45.2856 16.8806C44.8939 16.6693 44.7493 16.1796 44.9601 15.7878C45.3066 15.1538 45.5857 14.6608 45.9587 14.1941C46.3372 13.7198 46.783 13.3071 47.4363 12.8614C49.673 11.336 54.5339 10.4016 58.9014 10.6613C60.6449 10.7659 62.3211 11.0564 63.7424 11.5737C65.2387 12.1185 66.4636 12.9175 67.2173 14.0159Z" fill="#272828"/>
<path fill-rule="evenodd" clip-rule="evenodd" d="M63.2253 5.68655C60.7833 2.11852 55.4788 4.75546 52.5381 6.33257C48.7818 8.3477 45.4471 11.0529 45.8035 15.7226C51.3276 9.35143 66.3205 13.0218 63.2253 5.68655Z" fill="#E5D79F"/>
<path fill-rule="evenodd" clip-rule="evenodd" d="M62.5167 6.07909C61.5225 4.68798 59.907 4.5218 58.2286 4.86628C56.3406 5.25368 54.3443 6.2761 52.9176 7.04099C51.1145 8.00839 49.4218 9.13095 48.2454 10.5452C47.4675 11.4796 46.908 12.557 46.6873 13.8216C49.3787 11.8273 53.0897 11.1274 56.367 10.51C58.2286 10.1589 59.9434 9.83422 61.1495 9.32906C62.541 8.74576 63.2229 7.83559 62.5167 6.07909ZM57.9053 3.29137C60.1983 2.82143 62.4373 3.11086 63.8917 5.23165C63.9181 5.27677 63.9446 5.323 63.9667 5.37253C65.2103 8.32204 64.0892 9.83752 61.7763 10.8093C60.4014 11.3849 58.6104 11.7228 56.6639 12.0893C52.9937 12.7815 48.7464 13.5827 46.4346 16.2208C46.2989 16.3914 46.0936 16.5069 45.8597 16.5245C45.4139 16.5576 45.0266 16.2252 44.9957 15.7817C44.7993 13.213 45.6191 11.1835 47.0051 9.51726C48.3447 7.90934 50.1986 6.6712 52.1528 5.62236C53.6668 4.81125 55.7954 3.725 57.9053 3.29137Z" fill="#272828"/>
<path fill-rule="evenodd" clip-rule="evenodd" d="M39.9594 1.68059C43.9904 -1.30304 48.3249 3.90374 47.8681 8.76383C47.643 11.1741 46.5914 13.4126 45.5861 15.5818C43.7764 11.1476 43.1937 10.9308 40.2331 7.27695C38.5735 5.2266 38.014 3.76946 39.9594 1.68059Z" fill="#E5D79F"/>
<path fill-rule="evenodd" clip-rule="evenodd" d="M39.5076 1.01103C40.6067 0.207617 41.7388 -0.0818323 42.8258 0.0194196C43.6324 0.0953586 44.3993 0.384811 45.0956 0.838243C45.7676 1.27627 46.379 1.86836 46.8954 2.56392C48.149 4.24448 48.8794 6.57438 48.6665 8.83604C48.4303 11.353 47.3787 13.6213 46.3624 15.818L46.3161 15.9171C46.1285 16.3221 45.6496 16.4971 45.2435 16.3111C45.0493 16.2208 44.9091 16.0656 44.8363 15.8818C43.3886 12.338 42.7518 11.5743 40.9719 9.43916C40.5482 8.9318 40.0671 8.35509 39.6014 7.77949C38.6811 6.64371 38.0632 5.64991 37.9385 4.58346C37.8049 3.46089 38.211 2.36912 39.3653 1.13098C39.4083 1.08476 39.4568 1.04405 39.5076 1.01103ZM42.6812 1.61963C41.9838 1.5547 41.2412 1.74841 40.4974 2.27998C39.7415 3.1065 39.4679 3.77455 39.544 4.40297C39.6246 5.09853 40.1189 5.85901 40.8583 6.77358C41.4332 7.48124 41.8481 7.9798 42.21 8.41342C43.7902 10.3075 44.5273 11.1923 45.6076 13.5817C46.305 11.9936 46.9075 10.3658 47.0631 8.69076C47.2386 6.82861 46.6317 4.90923 45.601 3.52142C45.196 2.97554 44.7249 2.5177 44.2173 2.18753C43.7317 1.87057 43.212 1.66806 42.6812 1.61963Z" fill="#272828"/>
<path fill-rule="evenodd" clip-rule="evenodd" d="M34.7971 26.4111C32.5647 23.4285 35.4227 19.8616 37.5844 17.6594C40.331 14.8618 42.7873 14.0066 46.4112 15.7125C40.512 18.8194 41.5139 27.9277 36.9422 27.581C36.0407 27.5127 35.4338 26.979 34.7971 26.4111Z" fill="#E5D79F"/>
<path fill-rule="evenodd" clip-rule="evenodd" d="M34.1509 26.8919C32.8201 25.1167 32.9923 23.1984 33.8122 21.4089C34.568 19.7602 35.8823 18.2459 37.0122 17.0947C38.4876 15.5924 39.9067 14.6052 41.4802 14.2156C43.0759 13.8205 44.7697 14.0483 46.7593 14.9838C47.1632 15.1742 47.3342 15.6541 47.1455 16.0547C47.0682 16.2197 46.9402 16.3452 46.7913 16.4233C44.1153 17.8343 42.9479 20.7243 41.9415 23.2127C40.7586 26.1457 39.7665 28.6033 36.8854 28.3821C36.2862 28.338 35.794 28.1421 35.3449 27.8659C34.9421 27.615 34.6056 27.3178 34.2624 27.0108C34.2193 26.9755 34.184 26.9359 34.1509 26.8919ZM35.2776 22.0769C34.6961 23.3448 34.5493 24.6787 35.4001 25.8673C35.6715 26.1072 35.9363 26.3372 36.1979 26.5001C36.4395 26.6487 36.7 26.7543 37.0045 26.7774C38.7116 26.9073 39.5006 24.9505 40.443 22.6151C41.3765 20.3028 42.4381 17.6769 44.6649 15.8984C43.6331 15.5979 42.7172 15.566 41.8642 15.7784C40.614 16.0888 39.4333 16.9285 38.161 18.2228C37.1303 19.2749 35.9331 20.6451 35.2776 22.0769Z" fill="#272828"/>
<path fill-rule="evenodd" clip-rule="evenodd" d="M61.9452 29.6738C66.0722 26.229 60.9454 20.9166 57.6891 18.8365C54.1679 16.587 49.7595 14.7457 45.5508 15.7385C49.8919 19.2228 53.5554 23.4787 56.8195 27.958C58.3986 30.1239 59.341 31.0792 61.9452 29.6738Z" fill="#E5D79F"/>
<path fill-rule="evenodd" clip-rule="evenodd" d="M61.4865 29.0055C61.7988 28.737 62.0415 28.4596 62.2247 28.1746C62.7345 27.3789 62.7776 26.4874 62.5205 25.5861C62.2369 24.5956 61.6046 23.583 60.82 22.6487C59.7331 21.3522 58.3747 20.2307 57.2525 19.5131C55.5498 18.4258 53.6364 17.4364 51.6479 16.8432C50.2707 16.4316 48.8583 16.2115 47.4569 16.2808C49.1275 17.7302 50.6989 19.2941 52.1875 20.9351C54.0844 23.0284 55.8334 25.2339 57.4731 27.4845C58.186 28.4629 58.7432 29.1618 59.3226 29.4171C59.8269 29.6394 60.4779 29.5382 61.4865 29.0055ZM63.5842 29.0429C63.3039 29.4788 62.9332 29.8981 62.4631 30.2899C62.4234 30.324 62.3759 30.3559 62.3274 30.3801C60.777 31.2188 59.6735 31.331 58.6726 30.8919C57.7358 30.4792 57.0329 29.6174 56.1655 28.4288C54.5434 26.2013 52.8275 24.0376 50.9924 22.0114C49.1662 19.9963 47.2042 18.1 45.0766 16.3886C44.9244 16.2786 44.8118 16.1157 44.7655 15.9198C44.664 15.4862 44.9343 15.0526 45.3691 14.9535C47.6246 14.423 49.9176 14.6454 52.1091 15.2991C54.2576 15.9418 56.3079 16.9984 58.1264 18.1595C59.3634 18.9508 60.8608 20.1889 62.0603 21.6152C62.974 22.7059 63.7255 23.9176 64.0742 25.1513C64.4515 26.4764 64.3754 27.8114 63.5842 29.0429Z" fill="#272828"/>
<path fill-rule="evenodd" clip-rule="evenodd" d="M44.0234 32.0891C48.3888 33.9612 50.6619 28.9206 50.3541 25.0411C50.0616 21.363 48.0401 16.7054 45.9435 13.7119C44.7407 17.7906 44.1172 21.8748 42.9354 25.9997C42.1718 28.662 41.4236 30.3447 44.0234 32.0891Z" fill="#E5D79F"/>
<path fill-rule="evenodd" clip-rule="evenodd" d="M44.3977 31.3743C45.0068 31.6253 45.553 31.7166 46.0397 31.677C46.6686 31.6286 47.216 31.3578 47.6761 30.9429C48.176 30.4939 48.581 29.8676 48.89 29.1501C49.4251 27.9141 49.6514 26.4339 49.5432 25.1033C49.4119 23.4348 48.9021 21.5441 48.1892 19.7095C47.6342 18.2831 46.9567 16.892 46.2361 15.6671C45.8444 17.1737 45.51 18.6782 45.1756 20.1849C44.7276 22.2044 44.2796 24.2284 43.7091 26.2193L43.5337 26.8125C42.9554 28.7803 42.567 30.1054 44.3977 31.3743ZM46.1655 33.2838C45.4096 33.3443 44.5853 33.2079 43.7014 32.8282C43.6573 32.8084 43.612 32.783 43.5701 32.7555C40.6756 30.8119 41.202 29.0268 41.9877 26.358L42.1543 25.7769C42.7336 23.7617 43.1684 21.7972 43.6032 19.8371C44.0733 17.7119 44.5456 15.5911 45.1679 13.4835C45.2187 13.3163 45.3246 13.1622 45.4791 13.0521C45.8444 12.7979 46.3464 12.887 46.6013 13.2502C47.7368 14.8725 48.8491 16.9635 49.6922 19.1272C50.4624 21.1039 51.0109 23.1509 51.1554 24.9778C51.2801 26.5549 51.0131 28.3115 50.3786 29.7862C49.9846 30.6997 49.4417 31.5163 48.7575 32.1337C48.037 32.783 47.173 33.2046 46.1655 33.2838Z" fill="#272828"/>
<path fill-rule="evenodd" clip-rule="evenodd" d="M50.0811 31.057C49.5812 31.8186 51.3004 30.9074 50.5302 30.7368C50.4221 30.7137 50.1638 30.9767 50.0811 31.057Z" fill="#272828"/>
<path fill-rule="evenodd" clip-rule="evenodd" d="M49.6902 10.6962C45.3667 13.2242 45.8434 16.1099 48.3031 13.4531C50.0322 11.5877 53.4762 10.2208 55.8244 8.85496C59.5453 6.69015 51.779 9.64076 51.3343 9.85097C50.7638 10.1195 50.243 10.3969 49.6902 10.6962Z" fill="#272828"/>
<path fill-rule="evenodd" clip-rule="evenodd" d="M45.2956 11.1144C45.2349 11.6316 44.8178 14.7176 46.2446 13.9439C47.2069 13.4223 46.4245 8.76577 45.8087 7.62779C45.0109 6.14753 42.5424 4.58143 43.8843 6.02977C45.1676 7.41428 45.3453 9.30725 45.2956 11.1144Z" fill="#272828"/>
<path fill-rule="evenodd" clip-rule="evenodd" d="M41.3234 13.0208C43.7963 14.6023 45.2253 12.9911 42.8848 12.2636C41.1148 11.7144 39.73 10.6436 37.7558 11.5229C37.1655 11.7871 39.0624 11.7188 40.1868 12.3428C40.5653 12.553 40.9504 12.7941 41.3234 13.0208Z" fill="#272828"/>
<path fill-rule="evenodd" clip-rule="evenodd" d="M41.5246 18.1884C42.0488 17.7591 46.6436 15.0066 45.101 14.5323C43.7845 14.1273 40.249 17.6425 39.5339 19.0259C38.4713 21.0817 37.2122 24.3152 39.8528 20.2948C40.4332 19.4111 40.761 18.9411 41.5246 18.1884Z" fill="#272828"/>
<path fill-rule="evenodd" clip-rule="evenodd" d="M46.5393 14.8649C45.7679 13.7996 45.5362 15.949 45.523 16.1779C45.3873 18.4682 46.1056 21.4738 46.0262 24.321C46.0262 24.3749 45.4777 29.7357 46.4764 26.8864C47.4099 24.2219 47.112 17.635 46.5393 14.8649Z" fill="#272828"/>
<path fill-rule="evenodd" clip-rule="evenodd" d="M53.7677 18.5872C53.3914 18.2713 47.17 13.365 47.2848 15.4153C47.3587 16.7041 51.5387 18.5321 52.9015 19.5601C55.4704 21.5026 57.1819 23.0632 59.3138 25.5405C59.6217 25.8938 60.3908 26.1238 59.6018 24.7536C58.2644 22.4281 55.7849 20.3459 53.7677 18.5872Z" fill="#272828"/>
<path fill-rule="evenodd" clip-rule="evenodd" d="M52.9251 13.6287C52.4616 13.5858 47.198 13.2788 48.0477 14.616C48.4759 15.2906 55.1475 14.9802 56.3238 15.0518C57.0311 15.0947 61.1857 15.6923 57.7749 14.6424C55.9784 14.0877 54.8087 13.8158 52.9251 13.6287Z" fill="#272828"/>
<path fill-rule="evenodd" clip-rule="evenodd" d="M87.139 48.323C85.1373 46.0394 79.7611 47.1047 79.9763 49.3157C77.5078 47.9609 73.2484 48.8953 73.4635 52.678C69.8519 52.821 66.7378 54.3189 66.025 58.7432C61.6596 58.851 59.2287 62.9165 61.0152 67.0546C57.3671 68.7682 56.364 74.6903 59.2287 77.116C56.652 80.3263 56.7944 83.682 60.8728 85.6079C59.2287 88.0336 60.5164 91.7447 63.9504 91.6016C64.3786 94.9539 67.3547 101.399 70.3617 101.971C87.0275 105.136 92.8804 103.23 105.404 101.643C106.906 101.714 110.953 93.7422 110.309 90.8158C114.96 89.1033 115.388 85.8214 114.386 82.8961C116.318 80.8271 117.391 74.6188 113.956 73.264C117.534 70.2672 115.387 67.0546 112.312 66.1279C114.173 63.2037 112.885 59.7788 109.306 59.4915C110.738 57.8154 107.767 53.1061 104.586 54.4972C105.443 52.9278 102.867 49.7516 99.7208 51.3947C100.258 49.0758 95.8564 47.3985 93.5667 49.5039C93.4939 47.2907 89.1076 45.6486 87.139 48.323Z" fill="#E5D79F"/>
<path fill-rule="evenodd" clip-rule="evenodd" d="M86.51 48.8273C85.7817 48.0228 84.452 47.7609 83.2228 47.8797C82.7803 47.9226 82.3499 48.0184 81.9637 48.1593C81.6095 48.2891 81.3082 48.4531 81.0919 48.6413C80.879 48.8273 80.7576 49.0342 80.7786 49.2411C80.8205 49.6824 80.495 50.0753 80.0525 50.1161C79.8848 50.1315 79.7247 50.0963 79.5879 50.0203C78.928 49.6604 78.1081 49.4943 77.3048 49.5405C76.7288 49.5724 76.1682 49.7144 75.6816 49.9719C75.2248 50.214 74.8418 50.5585 74.5947 51.0097C74.3563 51.44 74.2316 51.9782 74.2691 52.6331C74.2934 53.0766 73.9536 53.4563 73.5077 53.4805L73.468 53.4816C71.6969 53.5553 70.0715 53.9746 68.8709 54.9541C67.8524 55.7851 67.1142 57.043 66.8207 58.8678C66.7578 59.2651 66.4113 59.5479 66.0206 59.5457C65.2824 59.5666 64.6082 59.7174 64.0123 59.9749C63.1284 60.3557 62.4222 60.9698 61.9455 61.738C61.4622 62.5117 61.2072 63.4417 61.2326 64.4421C61.2503 65.174 61.4191 65.951 61.7601 66.7368C61.9333 67.1451 61.7435 67.6206 61.3341 67.7955L61.3253 67.7988C60.7493 68.0762 60.2505 68.479 59.8356 68.9665C59.1029 69.8261 58.6295 70.941 58.4519 72.08C58.2786 73.2081 58.3912 74.3527 58.8359 75.2904C59.0555 75.7581 59.36 76.173 59.7462 76.5032C60.0883 76.7904 60.1303 77.2978 59.8423 77.6368L59.8202 77.6621C59.4008 78.1893 59.061 78.7242 58.8105 79.2524C58.3779 80.1626 58.2201 81.0441 58.3724 81.8442C58.5214 82.63 58.9804 83.3674 59.7849 84.0102C60.1722 84.3194 60.6489 84.6121 61.2172 84.8796C61.6189 85.0689 61.7921 85.5487 61.6034 85.9505L61.5405 86.0572C61.1267 86.6713 60.9413 87.3867 60.97 88.0756C60.9899 88.5357 61.1057 88.9858 61.311 89.3842C61.5096 89.7683 61.7943 90.1018 62.1585 90.3461C62.6153 90.6543 63.2034 90.8293 63.9174 90.7984C64.3455 90.7819 64.7086 91.1 64.7505 91.5193C64.9823 93.289 65.9632 95.9678 67.2841 98.104C68.2783 99.713 69.4304 100.975 70.5096 101.181C84.3527 103.811 90.6713 102.906 99.6712 101.618C101.372 101.374 103.171 101.117 105.302 100.847L105.376 100.84C105.855 100.712 106.809 99.264 107.711 97.4667C108.678 95.5397 109.491 93.2747 109.565 91.7372C109.582 91.4522 109.565 91.199 109.519 90.9866C109.432 90.5838 109.663 90.1843 110.047 90.0545C111.925 89.36 113.02 88.4102 113.566 87.3514C114.224 86.0737 114.11 84.5758 113.625 83.155C113.522 82.8568 113.607 82.5398 113.815 82.3307C114.164 81.9488 114.489 81.3831 114.756 80.7162C115.176 79.6497 115.428 78.3687 115.384 77.1822C115.341 76.0795 115.042 75.0758 114.383 74.4617C114.184 74.2768 113.945 74.1227 113.663 74.0126C113.25 73.8497 113.045 73.382 113.209 72.9671C113.265 72.8262 113.357 72.7096 113.469 72.6248C114.266 71.9513 114.722 71.2843 114.911 70.6603C115.041 70.2311 115.045 69.8195 114.949 69.4387C114.848 69.0414 114.642 68.6628 114.356 68.3227L114.323 68.2809C113.783 67.6602 112.981 67.1715 112.082 66.9008C111.654 66.772 111.413 66.3219 111.541 65.8949C111.567 65.8123 111.606 65.7353 111.652 65.6681C112.067 65.0078 112.291 64.3255 112.345 63.6761C112.391 63.0851 112.296 62.5227 112.067 62.0363C111.842 61.5597 111.483 61.147 111.003 60.8422C110.535 60.545 109.947 60.3502 109.247 60.2963C108.801 60.2611 108.469 59.8726 108.505 59.429C108.518 59.242 108.596 59.0758 108.713 58.9459C108.89 58.7203 108.912 58.3439 108.823 57.918C108.721 57.4271 108.469 56.8999 108.115 56.4278C107.761 55.959 107.307 55.5529 106.802 55.303C106.227 55.0202 105.573 54.9454 104.909 55.2337C104.502 55.412 104.027 55.2249 103.849 54.8177C103.744 54.5767 103.766 54.3136 103.887 54.1001C103.969 53.9394 103.967 53.716 103.901 53.4717C103.805 53.1327 103.584 52.7783 103.272 52.4746L103.239 52.4405C102.925 52.1499 102.526 51.9177 102.071 51.8076C101.495 51.669 100.821 51.7273 100.097 52.1048C99.7032 52.3106 99.2166 52.1576 99.0091 51.7647C98.9187 51.5886 98.8977 51.3938 98.9385 51.2133C98.9926 50.9745 98.9485 50.7434 98.8293 50.5354C98.6417 50.2085 98.2875 49.9202 97.8417 49.7078C97.3561 49.4766 96.7757 49.3435 96.1875 49.3435C95.4438 49.3446 94.689 49.568 94.1174 50.093C93.7875 50.3945 93.2777 50.3736 92.9775 50.0467C92.8341 49.8904 92.7634 49.6957 92.7634 49.5009C92.7403 49.1036 92.449 48.7106 92.0186 48.3959C91.7361 48.189 91.3951 48.0206 91.0255 47.9061L90.9946 47.8951C90.6315 47.7873 90.2453 47.7323 89.8679 47.7433C89.0944 47.7686 88.3275 48.0789 87.7956 48.7998C87.533 49.1586 87.0287 49.2356 86.6678 48.9737C86.6038 48.9286 86.5531 48.8801 86.51 48.8273ZM83.0727 46.2795C84.4587 46.1452 85.9715 46.405 87.0794 47.1941C87.8684 46.4864 88.8406 46.1672 89.8116 46.1364C90.3755 46.1177 90.9394 46.1992 91.4602 46.3565L91.5033 46.3686C92.0396 46.5348 92.5428 46.7858 92.9687 47.0972C93.4046 47.4153 93.7654 47.7994 94.0093 48.2308C94.6912 47.8907 95.4449 47.7389 96.1842 47.7378C97.0141 47.7367 97.8383 47.9281 98.5335 48.2605C99.2663 48.6105 99.8754 49.1223 100.227 49.743C100.323 49.9081 100.398 50.0809 100.457 50.2591C101.161 50.0842 101.834 50.0985 102.446 50.247C103.189 50.4264 103.836 50.8039 104.343 51.2794L104.393 51.3245C104.913 51.8242 105.28 52.4372 105.451 53.0447C105.487 53.1778 105.516 53.3121 105.533 53.4442C106.231 53.4002 106.901 53.5597 107.513 53.8613C108.252 54.2256 108.901 54.8045 109.4 55.4648C109.894 56.1229 110.249 56.8757 110.398 57.5911C110.492 58.0324 110.51 58.4683 110.44 58.87C110.97 59.0097 111.445 59.2188 111.865 59.483C112.608 59.954 113.168 60.6011 113.522 61.3517C113.872 62.0968 114.021 62.9365 113.95 63.8038C113.902 64.4289 113.739 65.0705 113.456 65.7023C114.271 66.0787 114.995 66.6058 115.545 67.2386L115.591 67.2904C116.03 67.812 116.353 68.4074 116.514 69.0502C116.679 69.7083 116.675 70.4094 116.455 71.128C116.257 71.7873 115.879 72.4553 115.281 73.1135L115.48 73.2873C116.484 74.2206 116.934 75.6282 116.993 77.1283C117.046 78.5458 116.751 80.0613 116.254 81.3105C115.989 81.9818 115.66 82.5882 115.29 83.0747C115.778 84.7398 115.816 86.4985 115 88.0844C114.338 89.3666 113.135 90.5046 111.181 91.3388C111.185 91.4918 111.185 91.6492 111.175 91.8143C111.091 93.5807 110.204 96.0899 109.152 98.1865C108.042 100.392 106.665 102.21 105.703 102.42C105.618 102.439 105.531 102.448 105.449 102.449C103.554 102.691 101.676 102.96 99.8985 103.214C90.7463 104.524 84.3218 105.444 70.2138 102.764C68.6292 102.463 67.1219 100.906 65.9147 98.9492C64.6336 96.8791 63.6437 94.3103 63.2663 92.3887C62.4906 92.3128 61.8175 92.0608 61.258 91.6833C60.6632 91.2827 60.1998 90.7401 59.8809 90.1227C59.5675 89.5185 59.3942 88.8372 59.3622 88.1395C59.3336 87.4021 59.4671 86.646 59.7738 85.9405C59.4108 85.7292 59.0808 85.5036 58.7829 85.2659C57.6595 84.3689 57.0118 83.3036 56.79 82.1436C56.5726 80.999 56.7768 79.7851 57.3539 78.569C57.5702 78.1133 57.8416 77.6533 58.1649 77.1943C57.846 76.8278 57.5856 76.4185 57.3782 75.9782C56.7966 74.7467 56.641 73.2719 56.8628 71.8368C57.0835 70.4127 57.6805 69.0161 58.6086 67.9287C59.0135 67.45 59.4836 67.0328 60.0144 66.6928C59.7661 65.9466 59.6392 65.2037 59.6227 64.4828C59.5896 63.16 59.9294 61.9229 60.576 60.8895C61.2238 59.8473 62.1827 59.0108 63.3745 58.498C63.9737 58.2404 64.6358 58.0622 65.3508 57.9851C65.779 56.0602 66.6639 54.6768 67.8491 53.7116C69.1799 52.6309 70.8561 52.0971 72.6746 51.9276C72.732 51.2882 72.913 50.7247 73.18 50.2371C73.5927 49.492 74.2073 48.9308 74.9268 48.55C75.6176 48.1835 76.4143 47.981 77.2176 47.9358C77.9581 47.894 78.7128 47.9865 79.408 48.2055C79.557 47.9227 79.7689 47.664 80.0337 47.4329C80.4056 47.1082 80.879 46.8441 81.4109 46.6482C81.9129 46.4622 82.4823 46.3367 83.0727 46.2795Z" fill="#272828"/>
<path fill-rule="evenodd" clip-rule="evenodd" d="M73.1024 57.0367C69.5724 57.9039 69.6927 61.505 68.3685 64.2938C67.5872 65.9402 65.1419 65.8951 64.7579 67.908C64.428 69.648 65.0062 71.0127 66.1759 72.3202C66.2553 72.4082 66.4098 72.34 66.4076 72.2277C66.3315 70.0761 64.9698 68.0786 67.201 66.3893C67.8543 65.8951 68.7028 65.478 69.131 64.7362C70.5501 62.2742 70.1087 58.627 73.2061 57.4208C73.4423 57.3294 73.3562 56.9739 73.1024 57.0367Z" fill="#272828"/>
<path fill-rule="evenodd" clip-rule="evenodd" d="M65.9932 73.4943C62.8924 75.0109 61.5451 77.8239 63.4596 80.8879C64.2486 82.1502 65.4316 82.9669 64.2906 84.7905C63.8646 85.4695 63.6329 86.2146 63.5623 87.0136C63.41 88.7019 63.3614 90.5783 64.1703 92.1136C64.3799 92.512 64.8997 92.2127 64.8434 91.8319C64.5973 90.1987 64.3071 88.6777 64.4108 87.0136C64.5024 85.5829 65.4878 84.3041 65.4878 82.9052C65.4878 82.0028 64.7893 81.0915 64.3369 80.3772C62.7148 77.8107 64.0003 75.5028 66.2956 74.0105C66.62 73.797 66.3397 73.327 65.9932 73.4943Z" fill="#272828"/>
<path fill-rule="evenodd" clip-rule="evenodd" d="M99.7289 55.2569C100.321 55.8985 101.002 56.4268 101.644 57.0167C102.808 58.0865 102.539 59.3345 102.458 60.6673C102.364 62.1343 103.661 63.0775 104.65 63.9117C106.725 65.6616 104.872 66.935 105.387 68.8049C105.965 70.8948 108.95 70.4315 109.682 72.5347C110.135 73.8344 108.95 75.3994 108.478 76.5561C108.019 77.6864 108.216 78.743 108.766 79.7918C109.411 81.0123 109.851 81.5593 109.232 82.9438C108.871 83.7505 108.758 84.4538 108.76 85.3155C108.766 87.7786 110.066 89.7673 109.332 92.3283C109.209 92.7652 109.902 93.0811 110.086 92.6453C110.824 90.9042 110.574 88.998 110.184 87.1887C109.823 85.518 109.712 84.3063 110.212 82.6125C110.312 82.2691 110.462 81.6958 110.33 81.3425C110.024 80.5215 109.561 79.8006 109.278 78.9565C108.91 77.8625 109.526 76.6233 109.974 75.6603C110.365 74.815 110.842 73.6507 110.376 72.7295C109.563 71.115 106.037 69.551 106.421 67.734C106.672 66.5256 106.782 65.1268 105.866 64.1341C104.866 63.0511 103.609 62.3732 103.419 60.6684C103.325 59.8275 103.434 59.11 103.203 58.278C102.802 56.8186 101.084 55.7422 99.8359 55.1226C99.7465 55.0764 99.6626 55.1821 99.7289 55.2569Z" fill="#272828"/>
<path fill-rule="evenodd" clip-rule="evenodd" d="M81.2179 53.6768C80.3627 53.4919 79.7613 53.7241 79.417 54.5583C79.1014 55.3298 79.3331 56.2972 79.8495 56.9091C79.8992 56.9675 79.9996 56.919 79.9974 56.8486C79.9665 55.7943 79.5847 53.9167 81.1848 53.9233C81.3249 53.9233 81.358 53.7087 81.2179 53.6768Z" fill="#272828"/>
<path fill-rule="evenodd" clip-rule="evenodd" d="M79.8401 57.3148C79.2012 58.3934 78.0536 59.0889 77.2414 60.031C76.5242 60.8664 76.2086 62.0814 75.9482 63.1192C75.3986 65.2928 75.648 67.7427 76.6345 69.7391C76.6842 69.8382 76.8243 69.7831 76.8309 69.6863C76.97 67.2727 76.5286 64.9935 77.1079 62.5964C77.6089 60.5241 79.4705 59.3927 79.9935 57.3798C80.0156 57.2873 79.8898 57.2323 79.8401 57.3148Z" fill="#272828"/>
<path fill-rule="evenodd" clip-rule="evenodd" d="M77.4992 71.7284C76.4608 73.0425 75.2327 73.9153 74.4481 75.4473C73.6613 76.9748 74.0288 78.8865 74.0519 80.5175C74.0751 82.6515 72.5358 83.8247 71.941 85.6583C71.5338 86.9173 72.4607 88.5374 72.8657 89.661C73.4451 91.2723 72.8845 92.561 72.2731 94.071C71.7832 95.2838 72.9088 96.8048 72.9694 98.0209C73.0533 99.762 72.4254 102.663 74.7163 103.218C75.1146 103.315 75.3816 102.743 75.002 102.543C73.0511 101.509 74.0475 98.2135 73.4483 96.3414C72.8911 94.6015 72.8205 93.2984 73.8941 91.7323C74.2484 91.215 74.0906 90.4777 73.957 89.9263C73.605 88.4669 72.0933 86.7313 72.8745 85.1652C73.5245 83.8566 74.532 82.9223 74.8597 81.4497C75.2073 79.8704 74.7527 78.1579 74.9756 76.5511C75.2029 74.9091 76.8846 73.3143 77.763 71.9309C77.8623 71.7736 77.6162 71.5788 77.4992 71.7284Z" fill="#272828"/>
<path fill-rule="evenodd" clip-rule="evenodd" d="M94.1392 53.825C95.2625 55.3834 94.7185 57.1873 95.5682 58.7038C96.0052 59.4852 96.5723 60.074 97.2841 60.6254C99.0916 62.0319 98.3114 63.8655 97.6957 65.6264C97.0965 67.3399 96.8957 68.9479 97.6284 70.6328C98.8279 73.3854 101.241 75.0967 99.266 78.2928C98.3412 79.7851 97.7398 81.9202 98.7694 83.5667C99.714 85.0766 100.325 86.7583 100.883 88.4433C101.505 90.3285 100.186 91.7692 99.4833 93.3221C98.9217 94.5569 99.1534 95.6971 99.6455 96.8802C100.299 98.4452 102.2 101.82 99.4116 102.15C99.0717 102.189 98.9238 102.73 99.3244 102.799C102.943 103.419 101.308 98.8293 100.675 97.053C100.194 95.7026 99.9291 94.6549 100.575 93.2329C100.933 92.4416 101.54 91.5645 101.6 90.6741C101.685 89.4602 101.396 88.5918 100.884 87.5155C99.5484 84.7179 98.6999 81.7056 100.036 78.7429C100.905 76.8136 101.101 75.6932 100.218 73.7089C99.6191 72.3574 98.7926 71.116 98.3247 69.7084C97.7365 67.9365 98.5983 66.1062 98.9073 64.3651C99.3432 61.9241 98.4692 60.8356 96.8846 59.242C95.3066 57.6594 96.3671 54.9597 94.2142 53.7513C94.1701 53.7271 94.1083 53.7788 94.1392 53.825Z" fill="#272828"/>
<path fill-rule="evenodd" clip-rule="evenodd" d="M87.3971 53.5751C87.0253 54.4182 86.916 55.0752 86.8895 55.9942C86.8377 57.722 86.8145 59.0581 85.8357 60.6022C85.0423 61.858 84.868 63.3063 85.6283 64.6589C86.8895 66.9052 88.1618 68.1378 86.9767 70.9354C86.6324 71.7487 86.2252 72.6116 86.2275 73.5184C86.2341 75.4048 86.8531 76.8763 88.1033 78.2938C88.1905 78.394 88.3594 78.2894 88.3218 78.1672C87.5439 75.6491 86.9425 73.9113 87.5814 71.1908C87.9941 69.4453 88.036 68.1191 87.4678 66.4099C87.1466 65.4392 86.617 64.5312 86.2418 63.5826C85.7364 62.3004 86.3598 61.4772 86.7714 60.3909C87.5891 58.2228 87.0275 55.8808 87.7392 53.7204C87.8076 53.5212 87.4843 53.3814 87.3971 53.5751Z" fill="#272828"/>
<path fill-rule="evenodd" clip-rule="evenodd" d="M88.2443 79.7729C86.631 81.5503 84.8721 82.5871 84.6745 85.1613C84.5995 86.1331 85.1833 87.1654 85.5949 88.0029C86.6354 90.1127 86.3375 91.6051 85.4713 93.7171C84.4009 96.3243 86.407 98.6696 85.0674 101.338C84.4792 102.512 84.573 103.553 85.9369 103.839C86.3375 103.923 86.5571 103.412 86.2128 103.185C85.33 102.607 86.7028 99.7294 86.6509 98.6564C86.6222 98.0533 86.3783 97.4458 86.1963 96.879C85.5916 95.0146 86.0484 93.7556 86.8087 92.0332C87.484 90.4968 87.0834 89.109 86.4677 87.6364C85.8586 86.1749 85.4161 85.4992 85.8145 83.7823C86.1422 82.3714 87.5315 81.0078 88.4065 79.9336C88.4948 79.8224 88.3447 79.664 88.2443 79.7729Z" fill="#272828"/>
<path fill-rule="evenodd" clip-rule="evenodd" d="M77.4407 56.0914C77.113 55.4608 76.8481 54.8126 76.6495 54.1291C76.4663 53.5029 76.4807 52.836 76.2743 52.2207C76.2148 52.0425 75.9543 52.0292 75.9003 52.2207C75.5284 53.5392 76.3924 55.2099 77.028 56.3324C77.1803 56.601 77.5809 56.3644 77.4407 56.0914Z" fill="#272828"/>
<path fill-rule="evenodd" clip-rule="evenodd" d="M74.043 60.3256C73.6556 60.0405 73.3709 59.6806 73.1414 59.2591C72.9494 58.9058 72.8854 58.4997 72.6912 58.1453C72.614 58.0023 72.3546 58.0188 72.326 58.1916C72.1571 59.1898 73.0255 60.221 73.7991 60.7405C74.0595 60.9199 74.2868 60.5071 74.043 60.3256Z" fill="#272828"/>
<path fill-rule="evenodd" clip-rule="evenodd" d="M72.3755 68.6035C71.4121 67.9267 70.9619 66.8185 70.0438 66.1251C69.9368 66.0448 69.7867 66.1779 69.8242 66.2935C70.1829 67.4084 71.1561 68.3911 72.1482 68.9876C72.3997 69.1384 72.6072 68.7664 72.3755 68.6035Z" fill="#272828"/>
<path fill-rule="evenodd" clip-rule="evenodd" d="M70.4166 74.4107C69.7987 74.1564 69.4069 73.6656 69.0682 73.1098C68.7846 72.6476 68.5848 72.1655 68.1335 71.8441C68.0419 71.7803 67.9018 71.8662 67.9084 71.9729C67.9437 72.6288 68.352 73.243 68.7515 73.747C69.1664 74.272 69.6464 74.6638 70.2875 74.874C70.5921 74.9753 70.6969 74.5251 70.4166 74.4107Z" fill="#272828"/>
<path fill-rule="evenodd" clip-rule="evenodd" d="M69.9485 82.0834C69.5877 81.8325 69.2622 81.5574 68.9653 81.2349C68.6508 80.897 68.461 80.4755 68.1609 80.1299C68.0516 80.0022 67.8939 80.1453 67.9115 80.2741C68.0428 81.2096 68.9962 81.9624 69.7311 82.4532C69.964 82.6084 70.1725 82.2397 69.9485 82.0834Z" fill="#272828"/>
<path fill-rule="evenodd" clip-rule="evenodd" d="M69.1994 89.5635C68.3001 89.0286 67.6391 88.3364 66.8777 87.6441C66.7839 87.5594 66.6272 87.6408 66.6636 87.7685C66.9362 88.8305 68.0617 89.4688 68.961 89.9718C69.2248 90.1182 69.4598 89.7209 69.1994 89.5635Z" fill="#272828"/>
<path fill-rule="evenodd" clip-rule="evenodd" d="M69.3342 95.745C68.4095 95.8056 67.8787 95.2322 67.1229 94.836C67.0015 94.771 66.8282 94.8767 66.8779 95.0231C67.2056 96.0158 68.4647 96.3657 69.4004 96.237C69.6807 96.1974 69.6123 95.7274 69.3342 95.745Z" fill="#272828"/>
<path fill-rule="evenodd" clip-rule="evenodd" d="M84.8184 51.0164C84.5679 50.6884 84.3572 50.3472 84.174 49.9785C84.003 49.6241 83.9378 49.2312 83.7436 48.8868C83.6576 48.7316 83.4634 48.8218 83.4457 48.9671C83.3365 49.7837 83.9897 50.6829 84.4664 51.286C84.6242 51.4852 84.9718 51.2167 84.8184 51.0164Z" fill="#272828"/>
<path fill-rule="evenodd" clip-rule="evenodd" d="M83.4036 58.3228C83.0074 57.9729 82.6896 57.5789 82.4402 57.1133C82.2416 56.7446 82.2162 56.2802 81.9536 55.9566C81.8576 55.8411 81.6899 55.9214 81.6501 56.037C81.489 56.4684 81.7815 57.0011 81.9801 57.3841C82.2372 57.8848 82.6223 58.3174 83.0505 58.6772C83.291 58.8841 83.6452 58.5397 83.4036 58.3228Z" fill="#272828"/>
<path fill-rule="evenodd" clip-rule="evenodd" d="M82.2215 66.8986C81.8441 66.6289 81.5793 66.2768 81.3453 65.8828C81.1346 65.5295 80.9801 65.1443 80.648 64.8823C80.5564 64.813 80.4041 64.8482 80.4063 64.9825C80.4206 65.9037 81.214 66.881 81.9335 67.3883C82.2369 67.5996 82.5139 67.1088 82.2215 66.8986Z" fill="#272828"/>
<path fill-rule="evenodd" clip-rule="evenodd" d="M82.5309 75.0197C81.6602 74.8546 81.37 74.2063 80.7995 73.6274C80.6682 73.4932 80.4761 73.6362 80.5048 73.7991C80.667 74.7104 81.4991 75.3883 82.3885 75.5358C82.7261 75.5919 82.874 75.0835 82.5309 75.0197Z" fill="#272828"/>
<path fill-rule="evenodd" clip-rule="evenodd" d="M81.2396 84.377C80.3546 83.5714 79.8415 82.4851 78.9841 81.6696C78.8925 81.586 78.7281 81.6685 78.7678 81.794C79.1342 82.9419 79.9651 83.9566 80.8788 84.738C81.1248 84.9504 81.4857 84.5993 81.2396 84.377Z" fill="#272828"/>
<path fill-rule="evenodd" clip-rule="evenodd" d="M79.9617 91.7492C79.3151 91.2177 78.7932 90.5441 78.3727 89.8233C78.2889 89.6791 78.0903 89.7814 78.1178 89.9322C78.2801 90.8424 78.9046 91.5336 79.6042 92.108C79.8536 92.315 80.2144 91.9572 79.9617 91.7492Z" fill="#272828"/>
<path fill-rule="evenodd" clip-rule="evenodd" d="M78.9416 97.5973C78.2011 97.4377 77.7774 96.9116 77.1705 96.5275C77.0679 96.4648 76.941 96.5913 77.0061 96.6904C77.4133 97.3364 78.093 97.8042 78.8445 97.9527C79.0751 98.0001 79.1755 97.6479 78.9416 97.5973Z" fill="#272828"/>
<path fill-rule="evenodd" clip-rule="evenodd" d="M90.3486 52.8472C90.7889 52.6007 91.1508 52.243 91.5006 51.8831C91.846 51.531 92.2521 51.1282 92.432 50.6637C92.4739 50.5537 92.3404 50.4161 92.2289 50.4623C91.8007 50.6384 91.5117 51.0225 91.2104 51.3615C90.854 51.7665 90.4843 52.1429 90.076 52.4962C89.8774 52.6657 90.129 52.9661 90.3486 52.8472Z" fill="#272828"/>
<path fill-rule="evenodd" clip-rule="evenodd" d="M91.1558 60.5642C91.4836 60.1746 91.798 59.7729 92.1158 59.3745C92.395 59.0267 92.7691 58.7053 92.9357 58.2882C92.9964 58.1408 92.8121 58.0593 92.6996 58.1077C92.3034 58.2794 92.0353 58.7053 91.7771 59.0377C91.4637 59.4416 91.1591 59.8521 90.838 60.2494C90.6615 60.4706 90.9682 60.7876 91.1558 60.5642Z" fill="#272828"/>
<path fill-rule="evenodd" clip-rule="evenodd" d="M91.8936 69.6892C92.8359 68.9584 93.8092 67.7907 94.2771 66.6901C94.3268 66.5757 94.2043 66.4733 94.1061 66.557C93.6514 66.9366 93.3568 67.4671 93.0147 67.9415C92.6163 68.4962 92.1694 69.0046 91.6309 69.4283C91.4433 69.5747 91.706 69.8311 91.8936 69.6892Z" fill="#272828"/>
<path fill-rule="evenodd" clip-rule="evenodd" d="M93.0146 76.4726C93.8411 76.1117 94.8177 75.4282 95.2437 74.6116C95.3231 74.4586 95.1455 74.2264 94.9832 74.3507C94.6334 74.6171 94.3653 74.9847 94.0464 75.2884C93.6811 75.6362 93.264 75.9058 92.8072 76.1182C92.5633 76.2305 92.7763 76.5772 93.0146 76.4726Z" fill="#272828"/>
<path fill-rule="evenodd" clip-rule="evenodd" d="M93.5058 86.6099C94.1547 86.1641 94.9547 85.4983 95.1853 84.7125C95.2184 84.6024 95.0761 84.5276 94.9955 84.6024C94.7373 84.8479 94.553 85.1659 94.3235 85.4389C94.0377 85.7779 93.6978 86.064 93.3337 86.316C93.1549 86.4404 93.3248 86.7342 93.5058 86.6099Z" fill="#272828"/>
<path fill-rule="evenodd" clip-rule="evenodd" d="M93.4618 94.2578C93.8392 93.9397 94.189 93.5964 94.5321 93.242C94.8599 92.8997 95.2494 92.5607 95.4568 92.1282C95.5197 91.9972 95.3917 91.8674 95.2604 91.9323C94.8775 92.1216 94.6027 92.4628 94.3136 92.772C93.9373 93.1726 93.5456 93.5622 93.1241 93.9199C92.8891 94.1213 93.23 94.4559 93.4618 94.2578Z" fill="#272828"/>
<path fill-rule="evenodd" clip-rule="evenodd" d="M93.6302 99.8285C94.0042 99.5952 94.3982 99.418 94.7535 99.1495C94.8738 99.0581 94.7712 98.8744 94.631 98.9426C94.2371 99.1407 93.8354 99.3003 93.458 99.5347C93.2738 99.6524 93.4448 99.9452 93.6302 99.8285Z" fill="#272828"/>
<path fill-rule="evenodd" clip-rule="evenodd" d="M71.0607 56.6671C70.9415 56.2896 70.8478 55.911 70.7804 55.5214C70.7131 55.1472 70.7517 54.7521 70.6237 54.3945C70.5752 54.258 70.3876 54.2525 70.3401 54.3945C70.1106 55.0988 70.4505 56.0992 70.6679 56.775C70.7495 57.0215 71.1391 56.918 71.0607 56.6671Z" fill="#272828"/>
<path fill-rule="evenodd" clip-rule="evenodd" d="M66.7966 61.5657C66.3408 61.3015 65.9943 60.956 65.7946 60.4662C65.6401 60.0876 65.6401 59.643 65.4172 59.2963C65.3422 59.1785 65.1678 59.1708 65.0928 59.2963C64.4682 60.3341 65.6523 61.6262 66.5163 62.0444C66.8352 62.1974 67.1088 61.7484 66.7966 61.5657Z" fill="#272828"/>
<path fill-rule="evenodd" clip-rule="evenodd" d="M63.39 68.8222C63.1439 68.4601 62.9122 68.0881 62.6981 67.7073C62.6186 67.5631 62.409 67.6644 62.4432 67.8163C62.5436 68.2763 62.7864 68.634 63.0424 69.0236C63.1836 69.2371 63.5323 69.0357 63.39 68.8222Z" fill="#272828"/>
<path fill-rule="evenodd" clip-rule="evenodd" d="M62.0561 73.7649C61.7747 73.5337 61.5099 73.2916 61.2693 73.0198C61.0023 72.7182 60.8754 72.3286 60.6028 72.0359C60.5465 71.9754 60.4527 72.0249 60.4505 72.0997C60.4108 72.8767 61.2836 73.5612 61.8277 73.9927C61.9866 74.1192 62.2183 73.8991 62.0561 73.7649Z" fill="#272828"/>
<path fill-rule="evenodd" clip-rule="evenodd" d="M61.4783 80.5656C60.7147 80.2684 60.2447 79.7963 59.7878 79.1359C59.705 79.0171 59.4579 79.0413 59.4821 79.2174C59.6002 80.1529 60.568 80.6624 61.3812 80.92C61.6119 80.997 61.6979 80.6503 61.4783 80.5656Z" fill="#272828"/>
<path fill-rule="evenodd" clip-rule="evenodd" d="M104.057 96.0938C104.563 95.7857 105.04 95.4379 105.488 95.0494C105.934 94.6609 106.483 94.2856 106.799 93.7782C106.878 93.6473 106.724 93.5361 106.605 93.5867C106.11 93.8024 105.729 94.257 105.335 94.6168C104.862 95.0494 104.406 95.4995 103.92 95.9177C103.822 96.0003 103.949 96.1609 104.057 96.0938Z" fill="#272828"/>
<path fill-rule="evenodd" clip-rule="evenodd" d="M103.948 88.2459C104.378 87.9355 104.752 87.5812 105.124 87.2026C105.494 86.8295 105.898 86.4872 106.152 86.0205C106.203 85.9259 106.119 85.7861 106.003 85.8279C105.522 86.0018 105.225 86.3529 104.897 86.7337C104.527 87.164 104.164 87.6042 103.765 88.0071C103.645 88.1281 103.806 88.3493 103.948 88.2459Z" fill="#272828"/>
<path fill-rule="evenodd" clip-rule="evenodd" d="M104.321 80.1746C104.7 79.7949 105.11 79.4295 105.447 79.0102C105.5 78.9431 105.42 78.8627 105.353 78.9155C104.934 79.2523 104.566 79.6617 104.184 80.0392C104.097 80.1262 104.232 80.2615 104.321 80.1746Z" fill="#272828"/>
<path fill-rule="evenodd" clip-rule="evenodd" d="M103.181 73.8723C103.388 73.4629 103.606 73.0623 103.834 72.6639C104.074 72.2468 104.391 71.8461 104.501 71.3718C104.526 71.2727 104.41 71.155 104.312 71.2276C103.951 71.495 103.741 71.889 103.516 72.2709C103.251 72.7156 103.006 73.1712 102.771 73.6323C102.636 73.9042 103.043 74.1419 103.181 73.8723Z" fill="#272828"/>
<path fill-rule="evenodd" clip-rule="evenodd" d="M101.721 66.2711C102.223 65.8628 102.867 65.165 102.996 64.5146C103.022 64.3836 102.895 64.2769 102.773 64.3418C102.158 64.6687 101.802 65.482 101.398 66.0224C101.247 66.2238 101.555 66.4076 101.721 66.2711Z" fill="#272828"/>
<path fill-rule="evenodd" clip-rule="evenodd" d="M100.242 61.2818C100.509 60.9087 100.779 60.5367 101.035 60.1559C101.296 59.7685 101.635 59.3878 101.731 58.9233C101.757 58.7967 101.619 58.657 101.494 58.7417C101.133 58.9893 100.932 59.3701 100.694 59.7289C100.404 60.1647 100.128 60.6105 99.8489 61.054C99.6933 61.306 100.077 61.5162 100.242 61.2818Z" fill="#272828"/>
<path fill-rule="evenodd" clip-rule="evenodd" d="M98.1642 56.43C98.5449 55.915 98.888 55.3504 99.0216 54.7187C99.0481 54.5833 98.8715 54.5063 98.7964 54.6251C98.4577 55.1556 98.2282 55.7356 97.8563 56.2485C97.7195 56.4367 98.0306 56.6127 98.1642 56.43Z" fill="#272828"/>
<path fill-rule="evenodd" clip-rule="evenodd" d="M96.814 52.8394C96.9376 52.3607 97.0965 51.8896 97.2587 51.423C97.315 51.2568 97.0744 51.1721 96.985 51.3074C96.6926 51.7598 96.5282 52.2033 96.3947 52.7228C96.3241 52.9957 96.7445 53.1102 96.814 52.8394Z" fill="#272828"/>
<path fill-rule="evenodd" clip-rule="evenodd" d="M110.591 85.3497C111.267 85.0052 111.939 84.6574 112.573 84.2414C113.058 83.9244 113.648 83.5051 113.846 82.9493C113.9 82.7975 113.719 82.7028 113.597 82.76C113.063 83.011 112.614 83.5568 112.143 83.9123C111.59 84.3261 110.995 84.6794 110.405 85.0349C110.203 85.1582 110.381 85.4553 110.591 85.3497Z" fill="#272828"/>
<path fill-rule="evenodd" clip-rule="evenodd" d="M111.739 80.1108C112.234 79.3943 112.929 78.7043 113.184 77.8579C113.228 77.7083 113.048 77.6356 112.942 77.7182C112.257 78.2695 111.772 79.1214 111.291 79.8477C111.104 80.1295 111.549 80.3837 111.739 80.1108Z" fill="#272828"/>
<path fill-rule="evenodd" clip-rule="evenodd" d="M111.458 73.231C111.775 72.8051 112.326 72.2801 112.304 71.7188C112.299 71.6099 112.179 71.5273 112.078 71.5901C111.622 71.8817 111.346 72.5486 111.067 73.0021C110.91 73.2563 111.287 73.4599 111.458 73.231Z" fill="#272828"/>
<path fill-rule="evenodd" clip-rule="evenodd" d="M108.981 67.5987C109.141 67.0209 109.358 66.475 109.607 65.9292C109.827 65.4482 110.097 65.0025 110.166 64.4731C110.189 64.3102 109.961 64.2497 109.861 64.3488C109.107 65.0806 108.704 66.4563 108.446 67.4501C108.355 67.7968 108.885 67.9421 108.981 67.5987Z" fill="#272828"/>
<path fill-rule="evenodd" clip-rule="evenodd" d="M106.994 62.2993C107.333 61.848 107.825 61.2449 107.854 60.6605C107.864 60.5053 107.676 60.4613 107.574 60.5439C107.141 60.9037 106.927 61.6092 106.602 62.0714C106.434 62.3136 106.823 62.5282 106.994 62.2993Z" fill="#272828"/>
<path fill-rule="evenodd" clip-rule="evenodd" d="M105.367 58.7544C105.4 58.2184 105.707 57.7815 105.793 57.2665C105.812 57.1575 105.695 57.0254 105.582 57.1058C105.088 57.4535 104.933 58.1843 104.92 58.7544C104.913 59.0439 105.349 59.0395 105.367 58.7544Z" fill="#272828"/>
<path fill-rule="evenodd" clip-rule="evenodd" d="M78.7912 59.1517C75.9365 55.5297 81.4164 49.886 86.3655 51.0889C87.4193 51.3443 88.3021 51.7724 89.2743 52.2335C84.4289 54.5733 84.2645 59.7174 81.1869 60.1411C80.1684 60.2797 79.5041 59.7746 78.7912 59.1517Z" fill="#E5D79F"/>
<path fill-rule="evenodd" clip-rule="evenodd" d="M78.1581 59.6476C77.2169 58.459 77.0172 57.0954 77.3427 55.7659C77.5203 55.0406 77.858 54.3296 78.3192 53.6715C78.7684 53.0255 79.34 52.429 79.9866 51.9216C81.7732 50.5217 84.2085 49.737 86.5556 50.3082C87.6536 50.5745 88.543 50.9971 89.5085 51.4539L89.6222 51.5056C90.0239 51.6971 90.196 52.178 90.004 52.5797C89.9146 52.7646 89.7657 52.9 89.5891 52.9749C87.2894 54.0996 86.1087 55.9717 85.1123 57.5543C84.0353 59.2613 83.1382 60.6843 81.2942 60.9363C80.6101 61.0299 80.0396 60.9055 79.521 60.6524C79.0531 60.4235 78.6613 60.1032 78.2619 59.7554C78.2221 59.7224 78.1868 59.6861 78.1581 59.6476ZM78.9085 56.1456C78.6999 56.9897 78.8191 57.8526 79.3874 58.6031C79.6776 58.8541 79.9535 59.0764 80.2283 59.2107C80.4732 59.3295 80.7458 59.3878 81.0791 59.3427C82.1726 59.1919 82.8866 58.0583 83.744 56.697C84.6532 55.2574 85.6971 53.6022 87.5289 52.3222C87.0897 52.1395 86.6461 51.9843 86.1749 51.8699C84.3476 51.4253 82.4187 52.0625 80.983 53.1884C80.4534 53.6044 79.9943 54.0831 79.6368 54.5916C79.2892 55.0868 79.0387 55.6151 78.9085 56.1456Z" fill="#272828"/>
<path fill-rule="evenodd" clip-rule="evenodd" d="M102.281 37.7075C97.705 33.4913 89.408 44.4034 89.0019 49.1094C88.8927 50.3596 89.1167 51.0079 89.579 52.1392C92.4359 46.7982 102.301 42.9561 103.046 40.1783C103.316 39.1757 102.836 38.4757 102.281 37.7075Z" fill="#E5D79F"/>
<path fill-rule="evenodd" clip-rule="evenodd" d="M101.683 38.252C101.209 37.8338 100.693 37.6203 100.147 37.5741C99.2999 37.5025 98.3587 37.814 97.3975 38.383C96.368 38.9905 95.3318 39.8863 94.3718 40.9253C91.9221 43.5688 89.991 47.0686 89.8078 49.1762C89.7703 49.623 89.7791 49.9752 89.831 50.2988C91.7444 47.8313 94.8419 45.7469 97.5322 43.9386C99.9499 42.3131 102.012 40.9275 102.268 39.9711C102.352 39.6585 102.319 39.3933 102.224 39.149C102.112 38.8595 101.906 38.5635 101.683 38.252ZM100.282 35.9683C101.198 36.0465 102.061 36.4074 102.83 37.1151C102.87 37.1525 102.905 37.1933 102.937 37.2384C103.249 37.6676 103.54 38.0803 103.728 38.5624C103.942 39.1093 104.014 39.6959 103.829 40.386C103.417 41.9257 101.126 43.4665 98.4359 45.2747C95.3804 47.3294 91.7709 49.7562 90.2933 52.5164C90.2084 52.6771 90.0682 52.8081 89.8873 52.8818C89.4757 53.048 89.0045 52.8521 88.8379 52.4405C88.5874 51.8286 88.402 51.3454 88.2905 50.8381C88.1747 50.2988 88.1382 49.7518 88.1989 49.043C88.4086 46.6196 90.5207 42.7137 93.1867 39.8346C94.2493 38.6867 95.4091 37.6874 96.5777 36.9952C97.8147 36.2633 99.0793 35.8649 100.282 35.9683Z" fill="#272828"/>
<path fill-rule="evenodd" clip-rule="evenodd" d="M92.241 34.0946C88.3843 33.7601 87.2114 38.9107 86.642 41.8327C85.9126 45.5658 85.9015 49.3947 89.3422 51.7917C88.05 44.3772 99.0771 36.112 92.241 34.0946Z" fill="#E5D79F"/>
<path fill-rule="evenodd" clip-rule="evenodd" d="M92.1033 34.8921C90.6236 34.7975 89.6227 35.7935 88.9297 37.1131C88.1363 38.623 87.7148 40.5721 87.4411 41.9831C87.0935 43.7638 86.9148 45.5566 87.227 47.1612C87.4191 48.1451 87.8031 49.0663 88.4574 49.8818C88.6649 46.9543 90.2396 44.0697 91.6377 41.512C92.441 40.0373 93.1836 38.6781 93.5158 37.5621C93.8843 36.3251 93.6504 35.3797 92.1033 34.8921ZM87.5029 36.3724C88.4905 34.4926 89.9847 33.0894 92.3174 33.2919C92.3693 33.2985 92.4233 33.3073 92.4752 33.3227C95.288 34.1525 95.715 35.821 95.0651 38.0166C94.6866 39.2911 93.902 40.7262 93.0534 42.2813C91.4578 45.2044 89.6106 48.5854 90.1447 51.6559C90.1778 51.8584 90.1358 52.0719 90.0089 52.2513C89.7551 52.6145 89.253 52.7037 88.8878 52.4505C86.971 51.1145 86.0165 49.3822 85.6436 47.4639C85.2849 45.6215 85.4769 43.6328 85.8543 41.6804C86.149 40.1726 86.6014 38.0827 87.5029 36.3724Z" fill="#272828"/>
<path fill-rule="evenodd" clip-rule="evenodd" d="M76.3027 47.8779C76.5146 43.4085 82.5782 43.3645 85.6889 46.4317C87.2327 47.9505 88.1905 49.9414 89.1252 51.863C85.0268 50.6018 84.5457 50.8813 80.3381 50.856C77.9767 50.8406 76.6514 50.4037 76.3027 47.8779Z" fill="#E5D79F"/>
<path fill-rule="evenodd" clip-rule="evenodd" d="M75.4978 47.8171C75.5607 46.5767 76.0121 45.6072 76.7128 44.8984C77.2347 44.3734 77.8825 44.0003 78.6019 43.7725C79.2905 43.5546 80.0574 43.4699 80.8464 43.5062C82.74 43.5953 84.7902 44.4174 86.2545 45.8592C87.8745 47.4539 88.8566 49.4723 89.8089 51.4269L89.8508 51.5106C90.0472 51.9112 89.8795 52.3943 89.4789 52.5891C89.2704 52.6904 89.0408 52.6937 88.8389 52.6177C85.6167 51.6294 84.7251 51.636 82.2588 51.6559C81.706 51.6603 81.0781 51.6647 80.3333 51.6603C79.0124 51.6525 77.9586 51.5139 77.131 50.9867C76.2537 50.4276 75.7119 49.5098 75.5023 47.9866C75.4923 47.9293 75.4923 47.871 75.4978 47.8171ZM77.8615 46.0254C77.4378 46.4535 77.1608 47.0544 77.11 47.8424C77.2524 48.7977 77.5448 49.3425 77.9972 49.6297C78.5125 49.9577 79.3037 50.0457 80.3388 50.0512C81.0748 50.0556 81.6961 50.0512 82.2445 50.0468C84.3974 50.0303 85.4369 50.0215 87.5887 50.5828C86.91 49.2709 86.1442 48.0086 85.1246 47.0038C83.9483 45.8449 82.2942 45.1845 80.7703 45.1119C80.1755 45.0844 79.6006 45.1471 79.0875 45.31C78.6052 45.4619 78.1848 45.6985 77.8615 46.0254Z" fill="#272828"/>
<path fill-rule="evenodd" clip-rule="evenodd" d="M90.5308 65.4307C87.1983 65.2821 86.3453 61.2937 86.0408 58.5555C85.6545 55.0766 86.4534 52.8986 89.6866 51.3633C88.5037 57.1919 95.3872 61.6536 92.5579 64.6108C91.9996 65.1952 91.2856 65.3118 90.5308 65.4307Z" fill="#E5D79F"/>
<path fill-rule="evenodd" clip-rule="evenodd" d="M90.4938 66.2332C88.47 66.143 87.2131 64.9202 86.4241 63.3167C85.7025 61.8519 85.3935 60.0778 85.2346 58.6426C85.026 56.7596 85.1474 55.2078 85.7731 53.8882C86.4109 52.5422 87.5409 51.4878 89.3351 50.636C89.7379 50.4445 90.2201 50.6162 90.411 51.0168C90.4982 51.2006 90.5114 51.4009 90.4607 51.5814C89.9619 54.1721 91.2872 56.578 92.4304 58.6514C93.8097 61.1563 94.964 63.254 93.1399 65.1656C92.7581 65.5641 92.3311 65.8007 91.8742 65.957C91.4759 66.0934 91.0698 66.1584 90.6549 66.2233C90.6008 66.2321 90.5478 66.2354 90.4938 66.2332ZM87.8708 62.6112C88.4071 63.7008 89.2237 64.5361 90.4872 64.622C90.7961 64.5736 91.0952 64.5207 91.3556 64.4327C91.5829 64.3556 91.7937 64.2401 91.9691 64.0563C92.981 62.9975 92.0839 61.3709 91.0135 59.4273C89.9575 57.509 88.7602 55.3343 88.7348 52.8404C88.0308 53.3489 87.5431 53.9201 87.2341 54.5738C86.7486 55.5951 86.6625 56.8718 86.8401 58.4654C86.9847 59.7696 87.2562 61.3621 87.8708 62.6112Z" fill="#272828"/>
<path fill-rule="evenodd" clip-rule="evenodd" d="M108.152 48.5509C108.099 43.7547 101.514 44.2862 98.2297 45.3549C94.6776 46.5105 90.907 48.5091 89.2109 51.9737C94.0839 50.9512 99.1081 50.8324 104.062 51.1152C106.457 51.2528 107.653 51.1438 108.152 48.5509Z" fill="#E5D79F"/>
<path fill-rule="evenodd" clip-rule="evenodd" d="M107.351 48.4721C107.339 48.1254 107.284 47.8129 107.194 47.5366C106.938 46.7596 106.364 46.2423 105.616 45.9199C104.778 45.5578 103.726 45.4246 102.646 45.4356C101.15 45.4522 99.6113 45.7526 98.4836 46.1202C96.7721 46.6782 95.0109 47.4354 93.4815 48.4666C92.4851 49.1368 91.589 49.9237 90.8718 50.8471C92.7598 50.5357 94.6655 50.3464 96.5746 50.2517C99.0905 50.1284 101.611 50.1692 104.111 50.3133C105.182 50.375 105.972 50.3871 106.461 50.1384C106.871 49.9303 107.155 49.4417 107.351 48.4721ZM108.728 47.0403C108.868 47.4673 108.951 47.9482 108.962 48.4831C108.967 48.5557 108.964 48.6284 108.948 48.7032C108.648 50.277 108.084 51.1212 107.186 51.5757C106.354 51.9972 105.347 51.995 104.021 51.9191C101.57 51.7793 99.1004 51.7386 96.6496 51.8596C94.223 51.9785 91.8064 52.2558 89.4284 52.7522C89.2463 52.8006 89.0455 52.7874 88.8623 52.6994C88.4618 52.5035 88.294 52.0214 88.4904 51.6208C89.4041 49.7499 90.8674 48.2817 92.5744 47.1305C94.2418 46.0079 96.142 45.188 97.9826 44.5893C99.235 44.181 100.951 43.8486 102.632 43.8299C103.915 43.8156 105.189 43.9862 106.252 44.4462C107.412 44.947 108.313 45.7713 108.728 47.0403Z" fill="#272828"/>
<path fill-rule="evenodd" clip-rule="evenodd" d="M99.6862 62.2808C103.455 60.3295 101.247 55.9086 98.3819 53.9264C95.6662 52.0467 91.2909 50.8063 88.0312 50.5576C90.1764 53.6964 92.657 56.4357 94.8486 59.5844C96.2643 61.6183 97.0059 63.0864 99.6862 62.2808Z" fill="#E5D79F"/>
<path fill-rule="evenodd" clip-rule="evenodd" d="M99.3881 61.5282C99.8825 61.2619 100.239 60.9504 100.477 60.6092C100.785 60.1657 100.905 59.6506 100.878 59.1113C100.848 58.5292 100.648 57.9062 100.333 57.2976L100.312 57.2591C99.7611 56.218 98.886 55.2517 97.9249 54.5869C96.7033 53.7417 95.111 53.0274 93.4381 52.4827C92.21 52.0832 90.9443 51.7783 89.7514 51.5791C90.5316 52.6356 91.3449 53.6646 92.1614 54.6959C93.2881 56.1233 94.4213 57.5563 95.5127 59.1257L95.8261 59.5802C96.8424 61.0626 97.5254 62.0587 99.3881 61.5282ZM101.804 61.5227C101.415 62.0796 100.857 62.5748 100.099 62.9754C100.042 63.0073 99.9829 63.0338 99.92 63.0536C96.8755 63.967 95.9221 62.5715 94.4942 60.4881L94.1863 60.0446C93.1535 58.5534 92.0202 57.1193 90.8913 55.6919C89.6974 54.1797 88.5045 52.6708 87.3856 51.0376C87.2741 50.8879 87.2123 50.6986 87.2267 50.4972C87.2598 50.0537 87.6482 49.7202 88.094 49.7544C89.8651 49.8886 91.9506 50.3068 93.9369 50.9518C95.7466 51.5406 97.4846 52.3242 98.8408 53.2652C100.005 54.0708 101.072 55.244 101.741 56.5107L101.765 56.5547C102.181 57.3549 102.446 58.2034 102.487 59.0354C102.533 59.9148 102.33 60.7666 101.804 61.5227Z" fill="#272828"/>
<path fill-rule="evenodd" clip-rule="evenodd" d="M102.401 57.5175C102.646 58.2923 102.987 56.5909 102.434 57.0267C102.357 57.0883 102.391 57.4163 102.401 57.5175Z" fill="#272828"/>
<path fill-rule="evenodd" clip-rule="evenodd" d="M88.0603 46.2637C87.3673 50.6747 89.6383 51.9811 89.187 48.7795C88.8703 46.5333 89.8711 43.3835 90.2529 40.9909C90.8588 37.1994 88.5094 44.2254 88.4024 44.6524C88.2678 45.1961 88.1652 45.7134 88.0603 46.2637Z" fill="#272828"/>
<path fill-rule="evenodd" clip-rule="evenodd" d="M85.8627 49.5345C86.1882 49.8691 88.0928 51.9007 88.3631 50.4799C88.5452 49.5202 84.8761 47.4269 83.7373 47.2057C82.2598 46.9195 79.7769 47.7362 81.5403 47.6305C83.2253 47.5282 84.6411 48.4768 85.8627 49.5345Z" fill="#272828"/>
<path fill-rule="evenodd" clip-rule="evenodd" d="M84.9379 53.3525C87.435 52.5414 87.1238 50.644 85.2965 51.8469C83.9149 52.756 82.3866 53.1071 81.8801 54.9648C81.7289 55.5217 82.7541 54.1757 83.8244 53.7509C84.1864 53.6101 84.5704 53.4802 84.9379 53.3525Z" fill="#272828"/>
<path fill-rule="evenodd" clip-rule="evenodd" d="M88.635 56.14C88.635 55.5369 89.3257 50.8089 88.1229 51.6046C87.0967 52.2837 87.5348 56.7101 88.0887 57.9868C88.9141 59.8842 90.4446 62.5816 89.1503 58.4853C88.8667 57.5851 88.7243 57.092 88.635 56.14Z" fill="#272828"/>
<path fill-rule="evenodd" clip-rule="evenodd" d="M89.1712 50.7957C87.996 50.7241 89.3578 52.0998 89.5078 52.2407C91.0185 53.6296 93.5101 54.8325 95.4401 56.4999C95.4776 56.5318 98.8852 59.9425 97.4749 57.6401C96.1541 55.4885 91.4168 51.9678 89.1712 50.7957Z" fill="#272828"/>
<path fill-rule="evenodd" clip-rule="evenodd" d="M95.8397 47.9172C95.4071 47.9998 88.4861 49.5142 89.9725 50.5938C90.9093 51.274 94.5409 49.4228 96.0218 49.0662C98.8257 48.3927 100.874 48.0966 103.8 48.0262C104.218 48.0163 104.813 47.6146 103.416 47.3824C101.048 46.9884 98.2001 47.5221 95.8397 47.9172Z" fill="#272828"/>
<path fill-rule="evenodd" clip-rule="evenodd" d="M91.9288 45.6909C91.6364 45.987 88.4429 49.4439 89.851 49.6145C90.5627 49.7003 94.1226 44.9227 94.8387 44.1512C95.2691 43.689 98.0344 41.161 95.3761 42.9186C93.9747 43.8464 93.1228 44.4979 91.9288 45.6909Z" fill="#272828"/>
</svg>
