<svg width="25" height="22" viewBox="0 0 25 22" fill="none" xmlns="http://www.w3.org/2000/svg">
<path d="M24.451 9.8L23.746 4.8C23.5727 3.60993 22.9783 2.52151 22.0707 1.73247C21.1631 0.943425 20.0026 0.50612 18.8 0.5H5.5C4.17441 0.501588 2.90356 1.02888 1.96622 1.96622C1.02888 2.90356 0.501588 4.17441 0.5 5.5L0.5 10.5C0.501588 11.8256 1.02888 13.0964 1.96622 14.0338C2.90356 14.9711 4.17441 15.4984 5.5 15.5H8.212L10.126 19.378C10.4478 20.0316 10.9938 20.5478 11.6644 20.8323C12.335 21.1169 13.0856 21.1509 13.7792 20.9282C14.4728 20.7055 15.0633 20.2409 15.4429 19.6191C15.8225 18.9973 15.9659 18.2597 15.847 17.541L15.511 15.5H19.5C20.2158 15.5 20.9232 15.3464 21.5745 15.0494C22.2258 14.7525 22.8057 14.3192 23.2751 13.7788C23.7445 13.2384 24.0923 12.6036 24.2952 11.9171C24.4981 11.2307 24.5512 10.5087 24.451 9.8ZM5.5 2.5H7.5V13.5H5.5C4.70435 13.5 3.94129 13.1839 3.37868 12.6213C2.81607 12.0587 2.5 11.2956 2.5 10.5V5.5C2.5 4.70435 2.81607 3.94129 3.37868 3.37868C3.94129 2.81607 4.70435 2.5 5.5 2.5ZM21.764 12.468C21.4824 12.792 21.1346 13.0517 20.744 13.2298C20.3535 13.4078 19.9292 13.5 19.5 13.5H14.333C14.188 13.5 14.0446 13.5315 13.913 13.5924C13.7814 13.6533 13.6645 13.7421 13.5706 13.8526C13.4767 13.9632 13.408 14.0928 13.3692 14.2326C13.3304 14.3723 13.3225 14.5189 13.346 14.662L13.874 17.862C13.8994 18.0105 13.8916 18.1628 13.8513 18.308C13.8111 18.4532 13.7392 18.5878 13.641 18.702C13.5258 18.8262 13.3828 18.9213 13.2237 18.9794C13.0645 19.0375 12.8939 19.057 12.7258 19.0363C12.5577 19.0156 12.3969 18.9553 12.2566 18.8603C12.1163 18.7653 12.0006 18.6384 11.919 18.49L9.73 14.058C9.67226 13.9471 9.59424 13.8481 9.5 13.766V2.5H18.8C19.5223 2.50264 20.2195 2.76473 20.7647 3.2385C21.3099 3.71227 21.6667 4.36616 21.77 5.081L22.476 10.081C22.5352 10.5067 22.5023 10.9401 22.3795 11.3519C22.2566 11.7637 22.0467 12.1443 21.764 12.468Z" fill="black"/>
</svg>
