<svg width="17" height="30" viewBox="0 0 17 30" fill="none" xmlns="http://www.w3.org/2000/svg">
<path d="M12.9796 6.04024H16.1796C16.5329 6.04024 16.8196 5.75352 16.8196 5.40025V1.08859C16.8196 0.753231 16.5617 0.474192 16.2276 0.450513C15.2094 0.378193 13.2203 0.280273 11.7899 0.280273C7.85965 0.280273 5.29966 2.63546 5.29966 6.91576V11.1602H0.819684C0.466406 11.1602 0.179688 11.4469 0.179688 11.8002V16.2802C0.179688 16.6335 0.466406 16.9202 0.819684 16.9202H5.29966V29.0801C5.29966 29.4334 5.58638 29.7201 5.93966 29.7201H10.4196C10.7729 29.7201 11.0596 29.4334 11.0596 29.0801V16.9202H15.6817C16.0081 16.9202 16.282 16.6751 16.3178 16.3506L16.8158 11.8706C16.858 11.4917 16.561 11.1602 16.1796 11.1602H11.0596V7.96023C11.0596 6.89976 11.9191 6.04024 12.9796 6.04024Z" fill="#1E1E1E"/>
</svg>
