<svg width="33" height="32" viewBox="0 0 33 32" fill="none" xmlns="http://www.w3.org/2000/svg">
<path d="M2.79102 0.285156H30.209C31.3166 0.285156 32.2148 1.18337 32.2148 2.29102V29.709C32.2148 30.8166 31.3166 31.7148 30.209 31.7148H2.79102C1.68337 31.7148 0.785156 30.8166 0.785156 29.709V2.29102C0.785156 1.18337 1.68337 0.285156 2.79102 0.285156Z" stroke="#1E1E1E" stroke-width="0.57"/>
<path d="M20.9796 7.04024H24.1796C24.5329 7.04024 24.8196 6.75352 24.8196 6.40025V2.08859C24.8196 1.75323 24.5617 1.47419 24.2276 1.45051C23.2094 1.37819 21.2203 1.28027 19.7899 1.28027C15.8596 1.28027 13.2997 3.63546 13.2997 7.91576V12.1602H8.81968C8.46641 12.1602 8.17969 12.4469 8.17969 12.8002V17.2802C8.17969 17.6335 8.46641 17.9202 8.81968 17.9202H13.2997V30.0801C13.2997 30.4334 13.5864 30.7201 13.9397 30.7201H18.4196C18.7729 30.7201 19.0596 30.4334 19.0596 30.0801V17.9202H23.6817C24.0081 17.9202 24.282 17.6751 24.3178 17.3506L24.8158 12.8706C24.858 12.4917 24.561 12.1602 24.1796 12.1602H19.0596V8.96023C19.0596 7.89976 19.9191 7.04024 20.9796 7.04024Z" fill="#1E1E1E"/>
</svg>
