<svg width="23" height="24" viewBox="0 0 23 24" fill="none" xmlns="http://www.w3.org/2000/svg">
<path d="M16.3001 3.28022C15.4839 2.64082 14.6283 1.96879 13.7571 1.23637C13.0888 0.674571 12.1862 0.414208 11.2908 0.525067C10.4231 0.631027 9.65106 1.08754 9.18333 1.77129C7.94703 3.68092 7.07292 5.77178 6.59877 7.95363C6.41272 7.70531 6.24767 7.44414 6.10508 7.17232C5.61387 6.21571 4.3767 5.80827 3.34177 6.26231C3.09121 6.37222 2.86704 6.52748 2.68254 6.71886C0.942929 8.36202 -0.0214594 10.5754 0.000514827 12.8743C-0.0489273 17.7065 3.46749 21.949 8.52784 23.1626C9.46938 23.3815 10.4361 23.4948 11.4069 23.5C11.438 23.5 11.7689 23.4971 11.9026 23.4885C18.0943 23.3031 23.0077 18.6062 23 12.8801C22.9959 8.53745 19.8928 6.10247 16.3001 3.28022ZM11.381 21.576C10.6091 21.5217 9.84635 21.2327 9.27045 20.8033C8.36863 20.2135 7.77187 19.3485 7.62972 18.3521C7.45339 16.7971 8.49056 14.7638 10.6094 12.4669C10.8316 12.2271 11.1566 12.0896 11.4983 12.0911C11.8355 12.0889 12.1561 12.226 12.3726 12.465C14.3141 14.5951 15.3803 16.5603 15.3803 17.9993C15.3743 19.8897 13.7757 21.3852 11.7399 21.5674C11.6505 21.5754 11.4982 21.5875 11.381 21.576ZM17.2813 19.7526C17.2201 19.7967 17.1527 19.8322 17.0905 19.8744C17.3298 19.2732 17.453 18.6379 17.4545 17.9973C17.4545 15.5748 15.5513 12.9788 13.9563 11.2274C13.346 10.5593 12.4484 10.1735 11.5024 10.1728H11.4982C10.5504 10.1713 9.64946 10.5543 9.03398 11.2206C6.49819 13.9662 5.3335 16.4328 5.57201 18.5523C5.62865 19.0444 5.76463 19.5258 5.97547 19.9807C3.5127 18.3313 2.06157 15.6854 2.07791 12.8743C2.05788 11.0481 2.83699 9.29189 4.23824 8.00436C4.47748 8.46407 4.76475 8.90103 5.09597 9.3091C5.55086 9.87755 6.32799 10.1413 7.07273 9.98014C7.83206 9.82488 8.42162 9.27131 8.57763 8.56711C8.99431 6.5313 9.79059 4.5779 10.9309 2.79414C11.0712 2.59022 11.3029 2.45514 11.5625 2.42602C11.8526 2.38994 12.145 2.47455 12.3611 2.65704C13.2509 3.40479 14.1242 4.09501 14.9539 4.74403C18.4159 7.4618 20.9185 9.42513 20.9185 12.8801C20.9274 15.5688 19.5846 18.1088 17.2843 19.7545L17.2813 19.7526Z" fill="black"/>
</svg>
