<svg width="33" height="32" viewBox="0 0 33 32" fill="none" xmlns="http://www.w3.org/2000/svg">
<path d="M0.786322 2.29058C0.786322 1.18366 1.68366 0.286322 2.79058 0.286322H30.2094C31.3163 0.286322 32.2137 1.18366 32.2137 2.29058V29.7094C32.2137 30.8163 31.3163 31.7137 30.2094 31.7137H2.79058C1.68366 31.7137 0.786322 30.8163 0.786322 29.7094V2.29058Z" stroke="#1E1E1E" stroke-width="0.572645"/>
<path d="M16.7272 28.6444C9.75453 28.6444 4.08105 22.9731 4.08105 16.0004C4.08105 9.02777 9.75453 3.35645 16.7272 3.35645C19.886 3.35645 22.9096 4.52679 25.2439 6.65273L25.669 7.04141L21.4988 11.2117L21.1122 10.881C19.8882 9.83306 18.3313 9.2554 16.7272 9.2554C13.0079 9.2554 9.98001 12.2811 9.98001 16.0004C9.98001 19.7198 13.0079 22.7455 16.7272 22.7455C19.4093 22.7455 21.5288 21.3754 22.5274 19.0412H16.1775V13.3484L28.5745 13.3656L28.6668 13.8015C29.3132 16.8701 28.7957 21.384 26.1758 24.6137C24.0069 27.2873 20.8288 28.6444 16.7272 28.6444Z" fill="#1E1E1E"/>
</svg>
