<svg width="25" height="25" viewBox="0 0 25 25" fill="none" xmlns="http://www.w3.org/2000/svg">
<g clip-path="url(#clip0_262_357)">
<path d="M23.273 8.22138C22.8041 7.68098 22.2245 7.24766 21.5736 6.95073C20.9226 6.65381 20.2155 6.50023 19.5 6.50038H15.511L15.847 4.45938C15.9659 3.74064 15.8225 3.00311 15.4429 2.38132C15.0633 1.75952 14.4728 1.29489 13.7792 1.07217C13.0856 0.849448 12.335 0.883478 11.6644 1.16805C10.9938 1.45263 10.4478 1.96878 10.126 2.62238L8.212 6.50038H5.5C4.17441 6.50197 2.90356 7.02926 1.96622 7.9666C1.02888 8.90393 0.501588 10.1748 0.5 11.5004L0.5 16.5004C0.501588 17.826 1.02888 19.0968 1.96622 20.0342C2.90356 20.9715 4.17441 21.4988 5.5 21.5004H18.8C20.0035 21.4955 21.1652 21.0587 22.0738 20.2695C22.9824 19.4804 23.5776 18.3913 23.751 17.2004L24.456 12.2004C24.5553 11.4911 24.501 10.7688 24.2969 10.0823C24.0928 9.39582 23.7437 8.7612 23.273 8.22138ZM2.5 16.5004V11.5004C2.5 10.7047 2.81607 9.94167 3.37868 9.37906C3.94129 8.81645 4.70435 8.50038 5.5 8.50038H7.5V19.5004H5.5C4.70435 19.5004 3.94129 19.1843 3.37868 18.6217C2.81607 18.0591 2.5 17.296 2.5 16.5004ZM22.471 11.9194L21.765 16.9194C21.6618 17.6334 21.3057 18.2866 20.7616 18.7603C20.2175 19.2339 19.5214 19.4965 18.8 19.5004H9.5V8.23438C9.59424 8.15227 9.67226 8.05323 9.73 7.94238L11.919 3.50738C12.0011 3.35931 12.1171 3.23283 12.2576 3.13834C12.3981 3.04385 12.559 2.98404 12.7271 2.96384C12.8952 2.94363 13.0657 2.9636 13.2246 3.0221C13.3834 3.08061 13.5262 3.17598 13.641 3.30038C13.7392 3.41462 13.8111 3.54915 13.8513 3.69435C13.8916 3.83955 13.8994 3.99184 13.874 4.14038L13.346 7.34038C13.3228 7.48336 13.331 7.62967 13.3699 7.76918C13.4089 7.9087 13.4776 8.03809 13.5715 8.14841C13.6654 8.25872 13.7821 8.34733 13.9136 8.40811C14.045 8.46888 14.1882 8.50036 14.333 8.50038H19.5C19.9294 8.50032 20.3538 8.59244 20.7445 8.77052C21.1353 8.9486 21.4832 9.20849 21.7649 9.53261C22.0465 9.85674 22.2553 10.2375 22.3772 10.6493C22.499 11.0611 22.531 11.4942 22.471 11.9194Z" fill="black"/>
</g>
<defs>
<clipPath id="clip0_262_357">
<rect width="24" height="24" fill="white" transform="translate(0.5 0.5)"/>
</clipPath>
</defs>
</svg>
