<svg width="37" height="24" viewBox="0 0 37 24" fill="none" xmlns="http://www.w3.org/2000/svg">
<path d="M17.7098 12.71C17.6169 12.6163 17.5063 12.5419 17.3844 12.4911C17.2625 12.4403 17.1318 12.4142 16.9998 12.4142C16.8678 12.4142 16.7371 12.4403 16.6152 12.4911C16.4934 12.5419 16.3828 12.6163 16.2898 12.71L12.9998 16V6C12.9998 5.73478 12.8945 5.48043 12.7069 5.29289C12.5194 5.10536 12.265 5 11.9998 5C11.7346 5 11.4802 5.10536 11.2927 5.29289C11.1052 5.48043 10.9998 5.73478 10.9998 6V16L7.70982 12.71C7.61685 12.6163 7.50625 12.5419 7.38439 12.4911C7.26253 12.4403 7.13183 12.4142 6.99982 12.4142C6.8678 12.4142 6.7371 12.4403 6.61524 12.4911C6.49338 12.5419 6.38278 12.6163 6.28982 12.71C6.10356 12.8974 5.99902 13.1508 5.99902 13.415C5.99902 13.6792 6.10356 13.9326 6.28982 14.12L10.5898 18.41C10.9632 18.7856 11.4702 18.9978 11.9998 19C12.5259 18.9951 13.0289 18.7832 13.3998 18.41L17.6998 14.12C17.8874 13.934 17.9937 13.6813 17.9956 13.4171C17.9975 13.1529 17.8947 12.8987 17.7098 12.71Z" fill="black"/>
<path d="M30.7098 9.88037L26.4098 5.59037C26.0351 5.21787 25.5282 5.00879 24.9998 5.00879C24.4714 5.00879 23.9645 5.21787 23.5898 5.59037L19.2898 9.88037C19.1036 10.0677 18.999 10.3212 18.999 10.5854C18.999 10.8496 19.1036 11.103 19.2898 11.2904C19.3828 11.3841 19.4934 11.4585 19.6152 11.5093C19.7371 11.56 19.8678 11.5862 19.9998 11.5862C20.1318 11.5862 20.2625 11.56 20.3844 11.5093C20.5063 11.4585 20.6169 11.3841 20.7098 11.2904L23.9998 8.00037V19.0004C23.9998 19.2656 24.1052 19.5199 24.2927 19.7075C24.4802 19.895 24.7346 20.0004 24.9998 20.0004C25.265 20.0004 25.5194 19.895 25.7069 19.7075C25.8945 19.5199 25.9998 19.2656 25.9998 19.0004V8.00037L29.2898 11.2904C29.4768 11.4787 29.7309 11.585 29.9963 11.5859C30.2616 11.5869 30.5165 11.4824 30.7048 11.2954C30.8931 11.1084 30.9994 10.8543 31.0004 10.5889C31.0013 10.3235 30.8968 10.0687 30.7098 9.88037Z" fill="black"/>
</svg>
